<?xml version="1.0" standalone="no"?>
<!DOCTYPE svg PUBLIC "-//W3C//DTD SVG 1.1//EN" "http://www.w3.org/Graphics/SVG/1.1/DTD/svg11.dtd">
<svg xmlns="http://www.w3.org/2000/svg">
<metadata>Generated by Fontastic.me</metadata>
<defs>
<font id="fycons" horiz-adv-x="512">
<font-face font-family="fycons" units-per-em="512" ascent="480" descent="-32"/>
<missing-glyph horiz-adv-x="512" />

<glyph unicode="&#57344;" d="M128 256c0 35-29 64-64 64-35 0-64-29-64-64 0-35 29-64 64-64 35 0 64 29 64 64z m192 0c0 35-29 64-64 64-35 0-64-29-64-64 0-35 29-64 64-64 35 0 64 29 64 64z m192 0c0 35-29 64-64 64-35 0-64-29-64-64 0-35 29-64 64-64 35 0 64 29 64 64z"/>
<glyph unicode="&#57345;" d="M127 22l129 73 129-73c20-10 43 6 39 28l-24 142 104 100c16 15 7 41-15 45l-144 20-65 129c-10 20-38 20-48 0l-64-129-145-20c-22-4-31-30-15-45l105-100-25-142c-4-22 19-38 39-28z"/>
<glyph unicode="&#57346;" d="M256 95l129-73c20-10 43 6 39 28l-24 142 104 100c16 15 7 41-15 45l-144 20-65 129c-10 20-38 20-48 0l-64-129-145-20c-22-4-31-30-15-45l105-100-25-142c-4-22 19-38 39-28z m-96 89c3 16-2 32-14 43l-71 68 100 15c16 2 29 12 36 26l45 91 45-91c8-14 21-24 37-26l101-14-72-69c-12-11-17-27-14-43l16-98-89 51c-14 8-32 9-47 0l-89-50z"/>
<glyph unicode="&#57347;" d="M255 95l-128-73c-20-10-43 6-39 28l24 142-104 100c-16 15-7 41 15 45l144 20 65 129c10 20 38 20 48 0l64-129 145-20c22-4 31-30 15-45l-105-100 25-142c4-22-19-38-39-28z m97 89c-3 16 2 32 14 43l71 68-100 15c-16 2-29 12-37 26l-44 91 0-284c8 0 16-2 23-6l89-50z"/>
<glyph unicode="&#57348;" d="M384 461c-91 0-128-68-128-68 0 0-37 68-128 68-91 0-128-71-128-137 0-136 256-273 256-273 0 0 256 137 256 273 0 69-37 137-128 137z m-128-331l0 169 60 61c1 2 21 33 68 33 15 0 60 0 60-69 0-57-103-142-188-194z"/>
<glyph unicode="&#57349;" d="M384 461c91 0 128-68 128-137 0-136-256-273-256-273 0 0-256 137-256 273 0 66 37 137 128 137 91 0 128-68 128-68 0 0 37 68 128 68z"/>
<glyph unicode="&#57350;" d="M256 435l-256-179 256-179 0 116c106 21 192 11 256-53-31 116-150 179-256 190z"/>
<glyph unicode="&#57351;" d="M185 184l51-49c42-40-21-100-64-60l-159 151c-17 17-17 44 0 61l159 151c43 41 106-20 64-60l-53-51c138 33 285-23 328-181 0-1 11-33-6-40-18-7-29 10-36 20-36 54-170 102-284 58z"/>
<glyph unicode="&#57352;" d="M267 178c16-1 29-14 29-29 0-16-13-29-29-29l-2 0c0 0-70 0-70 0-60 0-109 45-109 102l0 79-42-42c-24-24-60 12-36 36l91 90c10 10 26 10 36 0l51-50 54 0c-17 0-31 13-31 29 0 16 14 29 31 29l77 0c60 0 109-46 109-103l0-79 42 42c24 24 60-12 36-36l-91-90c-10-10-26-10-36 0l-51 51z m97 105c0 29-24 52-54 52l-70 0c0 0-54 0-54 0l40-40c24-24-12-60-36-36l-42 42 0-72c0-29 24-51 54-51l124 0-40 39c-25 24 12 60 36 36l42-42z"/>
<glyph unicode="&#57353;" d="M427 240l85 0-119-112-120 112 85 0 0 80-111 0-59 64 207 0c17 0 32-14 32-32z m-103-112l-59 64-111 0 0 80 85 0-120 112-119-112 85 0 0-112c0-18 15-32 32-32z"/>
<glyph unicode="&#57354;" d="M330 209c-33-31 16-77 49-46l123 116c13 13 13 33 0 46l-123 116c-33 31-82-16-49-46l41-39c-107 25-221-18-254-138 0-2-8-26 5-32 14-5 22 8 27 16 28 41 132 78 220 44z m-52 219l-208 0c-39 0-70-31-70-69l0-229c0-38 31-69 70-69l326 0c38 0 69 31 69 69l0 57-57-54c-6-4-8-9-23-10 0 0-2 0-5 0 0 0-294 0-294 0-13 0-23 10-23 23l0 197c0 13 10 23 23 23l90 0c30 19 65 32 103 36-2 9-3 18-1 26z"/>
<glyph unicode="&#57355;" d="M384 461c-91 0-128-68-128-68 0 0-37 68-128 68-91 0-128-71-128-137 0-136 256-273 256-273 0 0 256 137 256 273 0 69-37 137-128 137z m-128-331c-85 52-188 137-188 194 0 31 11 69 60 69 47 0 67-31 69-34l59-60 60 61c1 2 21 33 68 33 15 0 60 0 60-69 0-57-103-142-188-194z"/>
<glyph unicode="&#57356;" d="M0 394l0-197c0-65 53-118 118-118l276 0c65 0 118 53 118 118l0 197c0 65-53 118-118 118l-276 0c-65 0-118-53-118-118z m158-370c0-11 13-36 53-16 6 3 104 71 104 71l-157 0z"/>
<glyph unicode="&#57357;" d="M151 407l30 0 0 90-30 0z m90 60l0-60 30 0 0 60z m-181 0l0-60 30 0 0 60z m241-241l0 120 30 0 0 30-331 0 0-30 30 0 0-301-30 0 0-30 331 0 0 30-30 0 0 121 181 0 0-30 30 0 0 120-30 0 0-30z m-211-151l0 30 30 0 0-30z m0 241l30 0 0-150-30 0z"/>
<glyph unicode="&#57358;" d="M171 354c0 3-3 5-6 5-3 0-5-2-5-5 0-3 2-5 5-5 3 0 6 2 6 5z m341-2l-47 34 24 56c0 0-52-22-70-22-20 0-35-6-46-17-32 25-73 39-117 39-44 0-85-14-117-39-11 11-26 17-46 17-18 0-70 22-70 22l24-56-47-34 42-40-33-40 56-33c9-95 91-169 191-169 100 0 182 74 191 169l56 33-33 40z m-181 17l0 21 10 0 0-21c13-2 22-12 22-25 0-13-10-23-22-26l0-21-10 0 0 21c-13 3-22 13-22 26 0 13 10 23 22 25z m-75-30c41 0 75-33 75-73 0-40-34-72-75-72-41 0-75 32-75 72 0 40 34 73 75 73z m-85 30l0 21 10 0 0-21c13-2 22-12 22-25 0-13-10-23-22-26l0-21-10 0 0 21c-13 3-22 13-22 26 0 13 10 23 22 25z m85-266c-93 0-149 94-128 113 21 19 53-48 128-48 75 0 104 60 128 48 24-12-35-113-128-113z m75 251c0 3-3 5-6 5-3 0-5-2-5-5 0-3 2-5 5-5 3 0 6 2 6 5z m-76-210c-74 0-101 41-101 41 0 0 8-55 101-55 93 0 101 55 101 55 0 0-26-41-101-41z"/>
<glyph unicode="&#57359;" d="M408 352l-304 0c-18 0-31-14-29-32l26-288c2-18 17-32 35-32l240 0c18 0 33 14 35 32l26 288c2 18-11 32-29 32z m-216-288l-48 0-16 224 64 0z m96 0l-64 0 0 224 64 0z m80 0l-48 0 0 224 64 0z m32 384l-47 0-6 40c-1 13-14 24-27 24l-128 0c-13 0-26-11-27-24l-6-40-47 0c-26 0-48-22-48-48l0-16 384 0 0 16c0 26-22 48-48 48z m-211-18l7 50 120 0 7-50z"/>
<glyph unicode="&#57360;" d="M194 0l-194 451 62 29 194-451z m13 226l-111 257c266 103 52-110 305-14l111-257c-259-80-50 111-305 14z"/>
<glyph unicode="&#57361;" d="M504 126c-1 2-2 4-3 6-59 101-125 220-184 321 0 1-1 1-1 2-13 20-35 34-60 34-25 0-46-13-59-32-1-1-1-3-2-4-47-80-130-230-183-321-1-1-2-2-2-3-6-11-10-23-10-36 0-38 31-70 70-70 1 0 3 0 4 0 2 0 3 0 5 0 0 0 361 0 361 0 1 0 2 0 2 0 39 0 70 32 70 70 0 12-3 23-8 33z m-224-46c-6-7-15-10-24-10-9 0-18 3-24 10-7 7-11 15-11 25 0 9 4 17 11 24 6 7 15 11 24 11 9 0 18-4 24-11 7-7 11-15 11-24 0-10-4-18-11-25z m19 230c-2-10-5-21-9-34-3-12-7-27-11-46-4-18-9-40-14-67l-18 0c-5 27-10 50-14 68-4 18-8 33-11 45-3 11-6 22-9 33-2 10-4 18-4 24 0 11 5 20 14 28 9 7 20 11 33 11 12 0 23-4 33-11 9-8 14-17 14-28 0-6-2-14-4-23z"/>
<glyph unicode="&#57362;" d="M0 224l0-192c0-18 14-32 32-32l64 0c18 0 32 14 32 32l0 192c0 18-14 32-32 32l-64 0c-18 0-32-14-32-32z m384 256l0-448c0-18 14-32 32-32l64 0c18 0 32 14 32 32l0 448c0 18-14 32-32 32l-64 0c-18 0-32-14-32-32z m-192-128l0-320c0-18 14-32 32-32l64 0c18 0 32 15 32 32l0 320c0 18-14 32-32 32l-64 0c-18 0-32-15-32-32z"/>
<glyph unicode="&#57363;" d="M25 351l103 129 256 0 103-129c14-3 25-16 25-31l0-256c0-17-14-32-32-32l-448 0c-18 0-32 14-32 32l0 256c0 15 11 28 25 31z m71 33l0-32 320 0 0 32z m32 64l0-32 256 0 0 32z m32-160l0-96 192 0 0 96z m32-32l0-32 128 0 0 32z m16-128c-9 0-16-7-16-16 0-9 7-16 16-16l96 0c9 0 16 7 16 16 0 9-7 16-16 16z"/>
<glyph unicode="&#57364;" d="M184 202l91-87c50-47-24-118-74-71l-186 177c-20 19-20 51 0 70l186 177c50 47 124-24 74-71l-97-93 283 0c28 0 51-23 51-51 0-28-23-51-51-51z"/>
<glyph unicode="&#57365;" d="M97 392c-53 53-133-26-80-78l199-195c22-22 58-22 80 0l199 195c53 52-27 131-80 78l-159-156z"/>
<glyph unicode="&#57366;" d="M256 512c-141 0-256-115-256-256 0-141 115-256 256-256 141 0 256 115 256 256 0 141-115 256-256 256z m119-240l-99-98c-11-10-29-10-40 0l-99 98c-27 26 13 65 40 39l79-78 79 78c27 26 67-13 40-39z"/>
<glyph unicode="&#57367;" d="M392 415c53 53-26 133-78 80l-195-199c-22-22-22-58 0-80l195-199c52-53 131 27 78 80l-156 159z"/>
<glyph unicode="&#57368;" d="M120 97c-53-53 26-133 78-80l195 199c22 22 22 58 0 80l-195 199c-52 53-131-27-78-80l156-159z"/>
<glyph unicode="&#57369;" d="M415 120c53-53 133 26 80 78l-199 195c-22 22-58 22-80 0l-199-195c-53-52 27-131 80-78l159 156z"/>
<glyph unicode="&#57370;" d="M256 512c-141 0-256-115-256-256 0-141 115-256 256-256 141 0 256 115 256 256 0 141-115 256-256 256z m79-311l-79 78-79-78c-27-26-67 13-40 39l99 98c11 10 29 10 40 0l99-98c27-26-13-65-40-39z"/>
<glyph unicode="&#57371;" d="M484 370l-29 0 0 85c0 17-11 29-28 29l-399 0c-17 0-28-12-28-29l0-398c0-17 11-29 28-29l399 0c3 0 3 0 5 0 3 0 6 0 9 0 40 0 71 32 71 72l0 241c0 17-11 29-28 29z m-86-285l-341 0 0 342 341 0z m-284 143l85 0 0-86-85 0z m114-57l113 0 0-29-113 0z m0 57l113 0 0-29-113 0z m-114 142l227 0 0-114-227 0z"/>
<glyph unicode="&#57372;" d="M180 493c-40-1-30 27-61 17-30-11-4-27-35-51-87-68-79-130-39-280 17-63-41-66-18-127 17-44 140-63 271-17 130 46 213 137 196 181-23 61-70 28-98 87-69 139-104 192-216 190z m-112-427c-7 19 37 81 170 127 133 47 208 30 215 9 5-12-53-88-169-129-117-41-212-17-216-7z m48 38c19-17 55-21 91-8 46 16 74 53 63 83 0 0 0 0-1 1-7-3-15-5-23-8-61-21-103-46-130-68z"/>
<glyph unicode="&#57373;" d="M203 512l26-205-133 0 213-307-26 205 133 0z"/>
<glyph unicode="&#57374;" d="M128 288l64 0 0-64-64 0z m192 0l64 0 0-64-64 0z m-96 0l64 0 0-64-64 0z m-96-96l64 0 0-64-64 0z m192 0l64 0 0-64-64 0z m-96 0l64 0 0-64-64 0z m224 320l0-96-128 0 0 96-128 0 0-96-128 0 0 96c-35 0-64-29-64-64l0-384c0-35 29-64 64-64l384 0c35 0 64 29 64 64l0 384c0 35-29 64-64 64z m0-448l-384 0 0 288 384 0z m-96 448l64 0 0-64-64 0z m-256 0l64 0 0-64-64 0z"/>
<glyph unicode="&#57375;" d="M195 216l238 237 79-78-238-238 1-1-78-77-197 197 78 77z"/>
<glyph unicode="&#57376;" d="M512 416l-333-373-179 240 66 58 113-123 282 251z"/>
<glyph unicode="&#57377;" d="M256 0c141 0 256 115 256 256 0 141-115 256-256 256-141 0-256-115-256-256 0-141 115-256 256-256z m0 448c106 0 192-86 192-192 0-106-86-192-192-192-106 0-192 86-192 192 0 106 86 192 192 192z m-32-205l0 109c0 18 14 32 32 32 18 0 32-14 32-32l0-83 55-54c5-6 9-14 9-23 0-18-14-32-32-32-9 0-17 4-23 9z"/>
<glyph unicode="&#57378;" d="M506 71c-10-8-27-12-49-12l-400 0c-22 0-39 4-49 12l-8-22c-6-16 20-29 57-29l400 0c37 0 63 13 57 29z m-449 185l400 0c37 0 63 14 57 30l-63 177c-6 16-32 29-57 29l-276 0c-25 0-51-13-55-29l-61-177c-8-16 18-30 55-30z m128 173c53 26 128 24 177-6 10-6 12-15 0-19-10-6-27-4-37 2-30 15-77 17-108 2-34-16-40-42-10-57 29-18 82-18 116-4 2 2 4 2 8 4 10 5 27 5 41 1 14-5 16-13 6-19l-2-2c-2-2-6-4-10-4-45-20-112-22-165-10-10-4-32-8-47-10-10 0-14 0-14 0-2 0-4 0-4 2 0 0 0 2 4 6 4 6 10 14 16 20-42 27-26 71 29 94z m321-201c-10-7-27-11-49-11l-400 0c-22 0-39 4-49 11l-8-21c-6-16 20-30 57-30l400 0c37 0 63 14 57 30z m0-78c-10-8-27-12-49-12l-400 0c-22 0-39 4-49 12l-8-22c-6-16 20-30 57-30l400 0c37 0 63 14 57 30z"/>
<glyph unicode="&#57379;" d="M256 512c-141 0-256-115-256-256 0-141 115-256 256-256 141 0 256 115 256 256 0 141-115 256-256 256z m0-455c-110 0-199 89-199 199 0 110 89 199 199 199 110 0 199-89 199-199 0-110-89-199-199-199z m-28 242c0-24-20-43-43-43-24 0-43 19-43 43 0 23 19 42 43 42 23 0 43-19 43-42z m142 0c0-24-19-43-43-43-23 0-43 19-43 43 0 23 20 42 43 42 24 0 43-19 43-42z m0-100c0-5-228-5-228 0 0-47 67-85 114-85 47 0 114 38 114 85z"/>
<glyph unicode="&#57380;" d="M0 26l512 0 0 51-512 0z m182 158l0 15c11 1 20 2 27 5 8 2 11 4 11 7 0 2 0 3 0 5-1 2-1 3-2 5l-24 66-104 0c-4-9-7-18-10-25-2-7-4-14-6-20-2-6-3-11-4-15-1-4-1-7-1-9 0-6 4-10 13-13 9-3 19-5 30-6l0-15-112 0 0 15c4 1 8 1 14 3 5 1 10 3 13 5 6 4 10 8 13 12 3 4 6 10 9 17 15 37 31 79 49 126 18 47 34 88 48 124l17 0 99-256c2-6 5-10 7-14 3-3 7-6 11-10 4-1 8-3 13-4 5-2 9-3 13-3l0-15z m-41 238l-44-116 89 0z m348-240c-5-1-10-2-17-2-10 0-19 3-26 8-6 5-10 12-12 22l-1 0c-9-10-19-18-29-23-11-5-23-8-38-8-16 0-28 5-38 14-10 10-15 22-15 38 0 8 1 15 3 21 2 7 6 12 10 17 4 4 8 8 14 11 6 4 11 6 16 8 6 3 19 7 38 14 19 6 32 11 39 15l0 20c0 2 0 6-1 11-1 5-2 10-5 15-3 5-7 9-12 13-5 4-12 6-21 6-7 0-13-1-18-3-6-3-10-5-12-7 0-3 1-7 2-13 1-5 2-10 2-15 0-5-2-9-7-13-4-4-10-6-18-6-7 0-12 2-15 7-4 5-5 11-5 17 0 6 2 13 7 18 4 6 10 12 17 16 7 4 14 7 23 10 9 3 18 4 26 4 12 0 22-1 31-2 9-2 17-5 24-11 7-5 12-12 16-21 4-9 5-20 5-34 0-20 0-38 0-53-1-16-1-33-1-51 0-5 1-10 3-13 2-3 5-6 9-8 2-1 5-2 10-2 4 0 9 0 14 0l0-14c-7-2-13-4-18-6z m-87 107c-9-4-17-8-25-13-7-5-12-10-16-17-4-6-6-14-6-23 0-12 3-20 9-26 6-5 14-8 23-8 10 0 19 3 26 8 8 4 14 10 19 17l2 72c-12-3-23-7-32-10z"/>
<glyph unicode="&#57381;" d="M6 25l512 0 0 51-512 0z m161 447l107-293-44 0-29 88-117 0-31-88-41 0 110 293z m-24-43l-47-130 92 0z m294-110c1 3 2 8 2 14 0 12-4 21-13 26-9 6-21 9-37 9-19 0-32-5-40-16-5-5-8-13-9-25l-34 0c1 27 10 45 26 56 17 10 36 15 57 15 26 0 46-5 62-14 15-10 23-25 23-45l0-124c0-3 1-6 3-9 1-2 4-3 9-3 2 0 4 0 6 0 2 1 4 1 6 1l0-26c-6-2-10-3-13-3-3-1-7-1-12-1-12 0-21 4-27 13-3 5-5 12-6 20-7-10-18-18-32-25-13-7-28-11-45-11-20 0-36 6-49 19-12 12-19 27-19 45 0 20 7 35 19 46 12 11 29 18 49 20l57 7c9 2 14 5 17 11z m-66-117c13 0 25 3 37 9 20 10 30 26 30 48l0 29c-4-3-10-5-17-7-7-2-13-4-20-4l-22-3c-13-2-23-5-29-8-11-7-17-17-17-30 0-11 4-19 11-25 8-6 17-9 27-9z"/>
<glyph unicode="&#57382;" d="M0 245c0 72 23 133 69 183 51 56 120 84 207 84 74 0 133-20 176-59 40-38 60-86 60-146 0-50-14-93-43-128-29-36-61-54-96-54-21 0-36 6-46 16-10 10-15 23-15 38 0 2 0 5 1 7 0 3 1 6 1 9-11-26-25-44-42-54-17-10-34-16-53-16-25 0-46 10-62 30-16 19-24 44-24 75 0 44 13 83 41 116 27 33 56 50 88 50 21 0 39-6 53-19 14-13 21-29 22-47l16 55 46 0-42-144c-3-11-5-20-7-27-1-7-2-13-2-18 0-10 3-17 9-22 6-4 12-7 20-7 24 0 45 13 64 40 19 26 28 60 28 102 0 51-17 91-51 120-34 29-79 44-137 44-80 0-141-24-183-73-36-42-54-94-54-157 0-55 17-101 52-138 40-45 97-67 172-67 35 0 67 6 97 18 30 11 58 27 83 46l21-29c-19-18-48-35-85-50-38-15-79-23-124-23-88 0-156 29-203 86-38 46-57 99-57 159z m273 117c-24 0-44-15-62-44-17-30-26-59-26-89 0-21 4-38 13-49 9-11 21-17 34-17 29 0 51 17 67 52 16 35 23 66 23 94 0 13-4 26-13 37-8 10-20 16-36 16z"/>
<glyph unicode="&#57383;" d="M341 447c-8 15-25 25-42 25l-83 0c-18 0-34-10-43-25l-38-29-81 0c-27 0-53-32-53-59l0-270c0-27 22-49 49-49l414 0c27 0 49 22 49 49l0 270c0 27-28 59-55 59l-81 0z m-233-204c0 81 66 148 148 148 82 0 148-67 148-148 0-82-66-149-148-149-82 0-148 67-148 149z m148-95c52 0 94 43 94 95 0 52-42 94-94 94-52 0-94-42-94-94 0-52 42-95 94-95z"/>
<glyph unicode="&#57384;" d="M256 512c-141 0-256-115-256-256 0-141 115-256 256-256 141 0 256 115 256 256 0 141-115 256-256 256z m0-455c-110 0-199 89-199 199 0 110 89 199 199 199 110 0 199-89 199-199 0-110-89-199-199-199z m-28 242c0-24-20-43-43-43-24 0-43 19-43 43 0 23 19 42 43 42 23 0 43-19 43-42z m142 0c0-24-19-43-43-43-23 0-43 19-43 43 0 23 20 42 43 42 24 0 43-19 43-42z m0-185c0 4-228 4-228 0 0 47 67 85 114 85 47 0 114-38 114-85z"/>
<glyph unicode="&#57385;" d="M288 32l0 480 192-288-128 0 0-192c0-18-14-32-32-32-18 0-32 14-32 32z m-64 448l0-480-192 288 128 0 0 192c0 18 14 32 32 32 18 0 32-14 32-32z"/>
<glyph unicode="&#57386;" d="M260 431c-1 3-31 11-33 15-1 5 59 66 61 65 1-1-27-55-26-56 1-2 31-11 32-15 1-5-58-66-60-65-1 1 26 54 26 56z m109-266c1 3 0 5-1 7l-31 177c13 16 21 36 21 57 0 8-7 15-16 15-9 0-16-7-16-15 0-36-32-64-71-64-39 0-71 28-71 64 0 8-7 15-16 15-9 0-16-7-16-15 0-21 8-41 22-57l-32-177c-1-2-1-4-1-6 0-1-26-146-26-146-1-6 2-12 8-15 3-2 5-2 8-2 4 0 7 1 10 2l114 77 115-77c3-1 6-2 9-2 3 0 6 0 9 2 5 3 8 9 7 15z m-42 2l-72-49-72 49 71 55z m-135 103l37-29-49-38z m126 2l12-69-51 39z m-6 34l-58-45-56 42 4 23c16-9 34-14 53-14 20 0 38 5 53 14z m-143-166l59-40-75-50z m172 0l16-90-75 50z"/>
<glyph unicode="&#57387;" d="M79 187l-40 0c-21 0-39 18-39 39l0 237c0 21 18 39 39 39l315 0c22 0 40-18 40-39l0-40-256 0c-34 0-59-25-59-59z m138-118l0-49c0-20 23-6 31 0 28 19 67 49 67 49z m256 315l-315 0c-22 0-40-18-40-39l0-237c0-21 18-39 40-39l315 0c21 0 39 18 39 39l0 237c0 21-18 39-39 39z m-59-217l-197 0c-10 0-20 8-20 20 0 12 8 20 20 20l197 0c9 0 19-8 19-20 0-12-8-20-19-20z m0 79l-197 0c-10 0-20 8-20 20 0 12 8 20 20 20l197 0c9 0 19-8 19-20 0-12-8-20-19-20z"/>
<glyph unicode="&#57388;" d="M67 133c-37 0-67 30-67 67l0 167c0 37 30 67 67 67l222 0c37 0 67-30 67-67l-44 0c-50 0-89-40-89-89l0-93c0-20 6-38 16-52z m43-38c0-8 9-26 37-12 4 3 72 50 72 50l-109 0z m135 183l0-92c0-37 30-67 67-67l133 0c37 0 67 30 67 67l0 92c0 37-30 67-67 67l-133 0c-37 0-67-30-67-67z m187-188c0-5-8-19-28-8-4 2-55 37-55 37l83 0z"/>
<glyph unicode="&#57389;" d="M341 57c0-16-12-29-28-29l-284 0c-8 0-15 4-21 9-5 5-8 12-8 20l0 341c0 16 13 29 28 29 16 0 29-13 29-29l0-313 227 0 0 32 15-15c13-12 28-17 42-17z m-28 370c-16 0-29-13-29-29l0-32 15 15c13 12 28 18 42 17 0 16-12 29-28 29z m-228-100c0 8 7 14 14 14l143 0c4 0 9-2 11-5l-23-23-131 0c-7 0-14 6-14 14z m14-185c-7 0-14 7-14 14 0 8 7 15 14 15l131 0 23-23c-2-3-6-6-11-6z m-14 128c0 8 7 14 14 14l102 0-2-2c-8-8-13-17-15-26l-85 0c-7 0-14 6-14 14z m0-57c0 8 7 15 14 15l85 0c2-10 7-19 15-26l2-3-102 0c-7 0-14 6-14 14z m143 157l-114 0c-16 0-29 13-29 28 0 16 13 29 29 29 6 0 28 9 28 28 0 16 13 29 29 29 15 0 28-13 28-29 0-18 22-28 29-28 15 0 28-13 28-29 0-16-13-28-28-28z m91-9l-100-99c-11-11-11-29 0-40l100-99c27-27 67 13 41 39l-52 51 174 0c16 0 29 13 29 29 0 16-13 28-29 28l-174 0 52 51c26 27-14 67-41 40z"/>
<glyph unicode="&#57390;" d="M224 353c0 17 14 32 32 32 18 0 32-15 32-32l0-228 57 58c30 30 75-15 45-46l-112-113c-12-12-32-12-44 0l-112 113c-30 31 15 76 45 46l57-58z m-224 127c0-18 14-32 32-32l448 0c18 0 32 14 32 32 0 18-14 32-32 32l-448 0c-18 0-32-14-32-32z"/>
<glyph unicode="&#57391;" d="M440 384l-240 0c-40 0-72-32-72-72l0-240c0-40 32-72 72-72l240 0c40 0 72 32 72 72l0 240c0 40-32 72-72 72z m18-297c0-18-15-33-33-33l-207 0c-18 0-32 15-32 33l0 207c0 18 14 32 32 32l207 0c18 0 33-14 33-32l0-207z m-146 425l-240 0c-40 0-72-32-72-72l0-240c0-40 32-72 72-72l240 0c40 0 72 32 72 72l0 240c0 40-32 72-72 72z m18-297c0-18-15-33-33-33l-207 0c-18 0-32 15-32 33l0 207c0 18 14 32 32 32l207 0c18 0 33-14 33-32l0-207z"/>
<glyph unicode="&#57392;" d="M65 178l111-110 259 258-110 110z m322 320c10 9 23 14 38 14 32 0 87-55 87-87 0-14-6-27-15-37l-34-35-111 110z m-348-348c-7-21-42-146-39-150 4-3 128 34 148 42z"/>
<glyph unicode="&#57393;" d="M435 102c0-15-11-26-26-26l-306 0c-15 0-26 11-26 26l0 306c0 15 11 26 26 26l127 0c22 0 39 17 39 39 0 21-17 38-39 38l-153 0c-43 0-77-34-77-77l0-358c0-43 34-77 77-77l358 0c43 0 77 34 77 77l0 153c0 22-17 39-38 39-22 0-39-17-39-39z m-202 201l69-69 162 162-69 68z m201 200c6 6 14 9 24 9 19 0 54-34 54-54 0-9-3-17-9-24l-22-21-69 68z m-217-217c-5-13-27-92-25-94 3-2 80 21 92 26z"/>
<glyph unicode="&#57394;" d="M0 85c0-31 29-57 64-57l384 0c35 0 64 26 64 57l0 275-234-209c-12-12-32-12-44 0l-234 209z m448 399l-384 0c-30 0-55-19-62-43l254-225 254 225c-7 25-32 43-62 43z"/>
<glyph unicode="&#57395;" d="M145 336c26 26-13 66-39 39l-98-99c-11-11-11-29 0-40l98-99c26-27 65 13 39 39l-78 80z m222-160c-26-26 13-66 39-39l98 99c11 11 11 29 0 40l-98 99c-26 27-65-13-39-39l78-80z m-90 259l-91-341c-4-15 4-31 20-35 15-4 30 5 34 20l91 341c5 15-4 31-19 35-15 4-31-5-35-20z"/>
<glyph unicode="&#57396;" d="M456 377l-70-70-79 79 70 70-57 56 192 0 0-188z m-400-242l70 70 79-79-70-70 57-56-192 0 0 196z m321-79l-70 70 79 79 70-70 56 61 0-196-192 0z m-242 400l70-70-79-79-70 70-56-53 0 188 192 0z"/>
<glyph unicode="&#57397;" d="M0 480l0-160c0-18 14-32 32-32l160 0c18 0 32 14 32 32l0 160c0 18-14 32-32 32l-160 0c-18 0-32-14-32-32z m288 0l0-160c0-18 14-32 32-32l160 0c18 0 32 14 32 32l0 160c0 18-14 32-32 32l-160 0c-18 0-32-14-32-32z m-288-288l0-160c0-18 14-32 32-32l160 0c18 0 32 14 32 32l0 160c0 18-14 32-32 32l-160 0c-18 0-32-14-32-32z m288 0l0-160c0-18 14-32 32-32l160 0c18 0 32 14 32 32l0 160c0 18-14 32-32 32l-160 0c-18 0-32-14-32-32z"/>
<glyph unicode="&#57398;" d="M224 173l0 228-57-58c-30-30-75 15-45 45l112 113c12 13 32 13 44 0l112-113c30-30-15-75-45-45l-57 58 0-228c0-18-14-32-32-32-18 0-32 14-32 32z m256-109l-448 0c-18 0-32-14-32-32 0-18 14-32 32-32l448 0c18 0 32 14 32 32 0 18-14 32-32 32z"/>
<glyph unicode="&#57399;" d="M243 341c4 0 9 0 13 0 47 0 85-38 85-85 0-47-38-85-85-85-47 0-85 38-85 85 0 23 10 45 25 60-2-5-4-11-4-17 0-24 19-43 43-43 23 0 42 19 42 43 0 21-15 38-34 42z m260-59c-12 19-38 44-70 70-53 47-113 75-177 75-64 0-124-28-177-75-32-26-58-51-70-70-11-15-11-37 0-52 12-19 38-44 70-70 53-47 113-75 177-75 64 0 124 28 177 75 32 26 56 53 70 70 11 15 11 37 0 52z m-247-154c-117 0-213 128-213 128 0 0 96 128 213 128 117 0 213-128 213-128 0 0-96-128-213-128z"/>
<glyph unicode="&#57400;" d="M274 208c18 9-51 15-27 27 33 18 75 27 99 42 9 9-45 24-30 33 21 18 85 21 100 39 36 33 81 115 81 157-301-24-358-117-428-271-15-36-42-118-63-190-6-21 15-27 24-12 30 45 66 90 78 118 103 63 124 36 166 57z m154 247c-166-112-154-79-302-220 43 78 79 187 302 220z m60-322c-48 30-118 27-205-31-75-48-132-54-178-36-6 3-12 6-12 6l-30-48c6-3 15-9 27-12 61-21 136-15 226 42 70 45 118 48 148 30 6-3 9-6 9-6l42 36c-9 3-15 9-27 19z"/>
<glyph unicode="&#57401;" d="M43 484c-24 0-43-19-43-42l0-372c0-23 19-42 43-42l426 0c24 0 43 19 43 42l0 372c0 23-19 42-43 42z m42-414l-42 0 0 41 42 0z m0 83l-42 0 0 41 42 0z m0 82l-42 0 0 42 42 0z m0 83l-42 0 0 41 42 0z m0 83l-42 0 0 41 42 0z m299-331l-256 0 0 165 256 0z m0 207l-256 0 0 165 256 0z m85-207l-42 0 0 41 42 0z m0 83l-42 0 0 41 42 0z m0 82l-42 0 0 42 42 0z m0 83l-42 0 0 41 42 0z m0 83l-42 0 0 41 42 0z"/>
<glyph unicode="&#57402;" d="M370 383l49-49-152-152 2-2-51-50-123 123 50 51 73-73z m-370 33l0-320c0-53 43-96 96-96l320 0c53 0 96 43 96 96l0 320c0 53-43 96-96 96l-320 0c-53 0-96-43-96-96z"/>
<glyph unicode="&#57403;" d="M0 96c0-53 43-96 96-96l320 0c53 0 96 43 96 96l0 320c0 53-43 96-96 96l-320 0c-53 0-96-43-96-96z m480 320l0-320c0-35-29-64-64-64l-320 0c-35 0-64 29-64 64l0 320c0 35 29 64 64 64l320 0c35 0 64-29 64-64z"/>
<glyph unicode="&#57404;" d="M416 512l-320 0c-53 0-96-43-96-96l0-320c0-53 43-96 96-96l320 0c53 0 96 43 96 96l0 320c0 53-43 96-96 96z m0-288l-320 0 0 64 320 0z"/>
<glyph unicode="&#57405;" d="M256 512c-141 0-256-115-256-256 0-141 115-256 256-256 141 0 256 115 256 256 0 141-115 256-256 256z m0-480c-123 0-224 100-224 224 0 123 100 224 224 224 123 0 224-100 224-224 0-123-100-224-224-224z m0 64c88 0 160 72 160 160 0 88-72 160-160 160-88 0-160-72-160-160 0-88 72-160 160-160z"/>
<glyph unicode="&#57406;" d="M256 512c-141 0-256-115-256-256 0-141 115-256 256-256 141 0 256 115 256 256 0 141-115 256-256 256z m0-480c-123 0-224 100-224 224 0 123 100 224 224 224 123 0 224-100 224-224 0-123-100-224-224-224z"/>
<glyph unicode="&#57407;" d="M429 274c7-12 11-26 11-42 0-20-4-36-13-49-8-14-20-25-36-32-17-9-37-14-59-18-21-3-47-5-77-5l-207 0 0 21c6 1 13 1 22 3 9 1 15 2 18 3 7 3 12 7 15 11 2 4 3 10 3 17l0 271c0 6-1 12-3 16-2 4-7 8-15 11-5 3-12 5-20 6-7 2-14 3-20 4l0 21 216 0c55 0 94-7 118-22 24-14 37-35 37-64 0-13-3-24-9-34-5-10-13-18-23-25-9-7-20-13-33-18-12-5-26-9-41-12l0-5c15-1 30-5 46-9 15-5 29-11 41-19 12-8 21-18 29-30z m-138 196c-13 11-31 17-56 17-4 0-9 0-14 0-6 0-11-1-15-1l0-142 15 0c30 0 52 7 67 20 14 14 21 32 21 56 0 21-6 38-18 50z m13-173c-16 14-40 21-71 21-3 0-8 0-14 0-6 0-10-1-13-1l0-140c2-7 7-13 16-17 9-5 19-7 32-7 22 0 40 7 54 22 14 14 21 34 21 60 0 27-8 48-25 62z"/>
<glyph unicode="&#57408;" d="M448 512l-6-18c-8 0-19-1-32-2-13-2-23-3-30-4-11-3-19-6-23-11-5-5-9-10-11-16l-95-281c-1-1-1-2-1-4-1-2-1-3-1-4 0-5 2-8 4-11 3-3 8-5 15-8 4-1 12-2 26-4 13-2 23-3 30-3l-6-18-254 0 6 18c7 0 18 1 32 1 14 1 23 2 29 4 11 2 18 6 24 10 5 5 9 10 10 16l95 281c1 2 1 3 2 5 0 2 0 3 0 5 0 3-1 7-3 9-3 3-7 6-15 8-7 2-16 4-29 6-12 2-21 3-27 3l6 18z"/>
<glyph unicode="&#57409;" d="M268 268c13-13 20-29 20-47 0-18-7-35-20-48l-87-87c-26-26-70-26-96-1-13 13-20 30-19 48 0 18 7 35 20 48l49 49-2 4c-4 15-9 37-9 59l0 19-85-85c-52-52-52-137 0-188 25-25 58-39 93-39 36 0 69 14 95 40l87 87c52 52 53 136 1 188-12 12-33 12-46-1-13-13-13-33-1-46z m112 244c-36 0-69-14-95-40l-87-87c-52-52-52-137 0-189 6-6 14-9 23-9 9 0 17 3 24 9 12 13 12 34-1 47-26 27-26 70 0 96l87 87c26 26 70 26 96 1 26-27 26-69-1-96l-49-49 3-10c5-16 12-38 8-51l-7-28 92 92c52 52 52 137 0 188-25 25-58 39-93 39z"/>
<glyph unicode="&#57410;" d="M276 256c0-35-30-63-66-64l-104-2c-36-1-64 25-63 60 1 35 30 63 66 64l55 1c8 14 19 30 32 42l-86-2c-59-1-108-48-110-106-1-58 45-102 105-101l104 3c60 1 109 48 110 106 1 11-9 20-21 19-11 0-21-9-22-20z m-39 0c1 34 30 63 66 64l104 3c35 1 63-26 62-60-1-35-30-63-65-64l-55-1c-8-14-19-35-32-42l85 2c59 2 108 48 110 106 2 57-45 101-104 100l-104-3c-59-2-108-49-110-107 0-11 9-20 21-20 12 0 22 10 22 22z"/>
<glyph unicode="&#57411;" d="M64 128l32 0 0-128-32 0 0 32-16 0 0 64 16 0z m-64 64l64 96 32 0-43-64 43 0 0-32z m32 192l32 0 0 128-32 0z m-32 96l32 0 0 32-32 0z m0-192l96 0 0 32-96 0z m0-192l64 0 0 32-64 0z m0-96l64 0 0 32-64 0z m160 448l352 0 0 32-352 0z m0-192l352 0 0 32-352 0z m0-192l352 0 0 32-352 0z"/>
<glyph unicode="&#57412;" d="M151 308c5-3 11-6 18-8 11-4 24-8 37-12 13-4 27-8 43-13 24-7 41-15 53-25 11-10 17-22 17-36 0-17-7-32-20-43-14-11-33-17-58-17-19 0-36 4-50 11-14 7-26 16-38 28-10 11-20 23-28 37-9 14-16 27-21 40l-24 0 4-132 23 0 19 18c15-8 33-14 53-20 21-5 44-8 68-8 26 0 49 3 68 9 20 6 37 14 52 25 13 9 24 22 32 36 8 15 12 30 12 46 0 25-7 46-21 63 0 0-1 0-1 1l91 0 0 32-135 0c-5 2-11 4-17 7-11 4-23 8-38 12-14 4-28 8-42 13-23 7-40 15-51 24-11 9-17 21-17 36 0 15 7 28 19 39 13 10 29 15 49 15 16 0 30-3 42-9 12-5 22-13 32-23 8-10 16-21 23-35 8-14 14-28 20-41l24 0-2 124-25 0-17-15c-10 5-26 11-45 17-19 5-39 8-61 8-23 0-43-3-62-9-20-6-35-14-47-24-13-11-23-22-30-35-6-14-10-27-10-41 0-23 7-43 20-61 0-1 1-2 1-2l-79 0 0-32z"/>
<glyph unicode="&#57413;" d="M32 0l448 0 0 32-448 0z m424 488c-10-2-18-5-25-10-6-4-11-12-14-23-3-12-4-29-4-52l0-139c0-41-15-74-43-99-29-25-67-37-114-37-55 0-97 12-127 36-30 24-45 58-45 101l0 191c0 6-1 11-4 16-2 4-7 8-14 12-4 2-10 4-17 5-7 1-13 2-17 3l0 20 202 0 0-20c-6 0-12-1-18-2-6-1-12-2-18-4-7-2-11-6-14-11-2-5-3-10-3-16l0-189c0-37 8-64 25-81 17-17 41-25 73-25 32 0 57 9 74 28 18 18 27 46 27 82l0 127c0 22-1 39-4 50-4 11-8 19-15 24-5 4-13 8-24 11-12 3-20 5-25 5l0 21 167 0 0-21c-5 0-13-1-23-3z"/>
<glyph unicode="&#57414;" d="M0 464c0-27 21-48 48-48 27 0 48 21 48 48 0 27-21 48-48 48-27 0-48-21-48-48z m0-192c0-27 21-48 48-48 27 0 48 21 48 48 0 27-21 48-48 48-27 0-48-21-48-48z m0-192c0-27 21-48 48-48 27 0 48 21 48 48 0 27-21 48-48 48-27 0-48-21-48-48z m160 368l352 0 0 32-352 0z m0-192l352 0 0 32-352 0z m0-192l352 0 0 32-352 0z"/>
<glyph unicode="&#57415;" d="M256 455c-126 0-228-102-228-227 0-126 102-228 228-228 126 0 228 102 228 228 0 125-102 227-228 227z m0-398c-94 0-171 76-171 171 0 94 77 170 171 170 94 0 171-76 171-170 0-95-77-171-171-171z m-10 126c0 0-75-25-104-41 26-34 67-57 114-57 47 0 88 23 114 57-29 16-95 36-104 41z m10-2c38 0 57 51 57 95 0 44-19 65-57 65-38 0-57-21-57-65 0-44 19-95 57-95z"/>
<glyph unicode="&#57416;" d="M398 484c0 15 13 28 29 28 15 0 28-13 28-28l0-29 29 0c15 0 28-13 28-28 0-16-13-29-28-29l-29 0 0-28c0-16-13-29-28-29-16 0-29 13-29 29l0 28-28 0c-16 0-29 13-29 29 0 15 13 28 29 28l28 0z m57-256c0-126-102-228-227-228-126 0-228 102-228 228 0 125 102 227 228 227 30 0 59-6 86-17-1-4-1-7-1-11 0-32 25-57 57-57 0-32 25-57 57-57 4 0 7 0 11 1 11-27 17-56 17-86z m-227-171c94 0 170 76 170 171 0 94-76 170-170 170-95 0-171-76-171-170 0-95 76-171 171-171z m0 28c46 0 87 23 113 57-26 15-82 32-97 38 27 13 40 56 40 94 0 45-18 67-56 67-39 0-57-22-57-67 0-38 13-81 39-94-14-4-71-24-96-38 26-34 67-57 114-57z"/>
<glyph unicode="&#57417;" d="M0 442c0-23 19-41 41-41l430 0c22 0 41 18 41 41 0 23-19 42-41 42l-430 0c-22 0-41-19-41-42z m0-186c0-23 19-41 41-41l430 0c22 0 41 18 41 41 0 23-19 41-41 41l-430 0c-22 0-41-18-41-41z m0-186c0-23 19-42 41-42l430 0c22 0 41 19 41 42 0 23-19 41-41 41l-430 0c-22 0-41-18-41-41z"/>
<glyph unicode="&#57418;" d="M87 28c-23 0-23 11-23 23l0 175-48 0c-17 0-21 10-9 22l228 227c12 12 31 12 42 0l228-227c12-13 8-22-9-22l-48 0 0-175c0-12 0-23-18-23l-103 0c0 0-14 0-14 15l0 128c0 0 0 14-14 14l-86 0c-14 0-14-14-14-14l0-128c0-15-14-15-14-15z"/>
<glyph unicode="&#57419;" d="M445 512l-378 0c-35 0-67-32-67-67l0-375c0-38 32-70 67-70l375 0c38 0 67 32 67 67l0 378c3 35-29 67-64 67z m-211-346c0 0-48-32-52-35-16-9-22 3-22 10l0 25-29 0c-25 0-45 23-45 48l0 116c0 25 20 48 45 48l151 0c25 0 44-20 44-48l-32 0c-32 0-60-29-60-61l0-64c0-13 3-26 12-35l-12 0z m201 36c0-26-19-45-45-45l-9 0 0-19c0-4-7-13-19-7-4 0-39 26-39 26l-25 0c-26 0-45 19-45 45l0 64c0 25 19 44 45 44l92 0c26 0 45-19 45-44z"/>
<glyph unicode="&#57420;" d="M445 515l-378 0c-35 0-67-29-67-67l0-374c0-39 32-68 67-68l375 0c38 0 67 32 67 68l0 374c3 38-29 67-64 67z m-61-349c-6-6-10-9-13-12-48-42-118-48-173-23-9-3-35-13-48-16-9-3-12-3-16-3-3 0-3 3-3 3 0 3 0 7 3 13 4 13 10 29 13 42-51 67-41 156 19 211 64 54 164 48 221-13 13-13 10-32-3-45-13-13-32-9-45 3-32 36-89 42-128 7-38-32-41-90-9-125 32-35 89-42 128-6 3 3 6 3 6 6 13 13 32 13 45 3 16-13 16-32 3-45z"/>
<glyph unicode="&#57421;" d="M445 512l-378 0c-35 0-67-32-67-70l0-375c0-38 32-67 67-67l375 0c38 0 67 32 67 67l0 375c3 38-29 70-64 70z m-199-378c0-9-6-16-16-16l-121 0c-10 0-16 7-16 16l0 112 73 0 0-64 32 0 0 64 48 0z m0 122l-48 0 0 80-22 0c0-10-6-16-13-19-6-3-13-7-22-7l-3 0 0-19 32 0 0-35-77 0 0 118c0 10 6 16 16 16l121 0c10 0 16-6 16-16z m173-122c0-9-6-16-16-16l-121 0c-10 0-16 7-16 16l0 112 64 0 0-3 9 0c3 0 7 0 10-3 3 0 3-3 6-6 0-4 3-7 3-10 0-3 0-6 0-10 0-3 0-6 0-9 0-3 0-7-3-7-3 0 0-3-3-6-3 0-6-3-10-3-6 0-12 3-12 6-4 3-4 13-4 19l-28 0c0-16 3-25 9-35 7-9 19-13 32-13 10 0 19 0 26 4 6 3 13 6 16 9 3 3 6 10 6 16 0 7 3 10 3 16 0 10-3 19-6 26 0 3-3 3-3 3l35 0 0-106z m0 170l0-48-51 0c6 0 10 3 16 6 3 4 6 10 6 16 0 10-3 16-12 20-7 3-20 6-32 6-16 0-26-3-32-6-13-10-16-16-16-26l28 0c0 3 0 3 0 6 0 4 0 4 4 7 0 0 3 3 6 3 3 0 3 0 10 0 6 0 9 0 12-3 4-3 4-7 4-10 0-3 0-3 0-6 0-3-4-3-4-7 0 0-3-3-6-3-3 0-6 0-10 0l-9 0 0-3-64 0 0 118c0 10 6 16 16 16l121 0c10 0 16-6 16-16l0-70z m-32 32l-89 0c-20 0-32-16-32-35l0-23 0 16c0 20 16 36 32 36l89 0c19 0 32-16 32-36l0-16 0 26c0 16-16 32-32 32z"/>
<glyph unicode="&#57422;" d="M445 512l-378 0c-35 0-67-32-67-67l0-375c0-38 32-70 67-70l375 0c38 0 67 32 67 67l0 378c3 35-29 67-64 67z m-45-384c0-10-10-19-19-19l-253 0c-10 0-19 9-19 19l0 35c0 10 9 19 19 19l256 0c10 0 19-9 19-19l0-35z m0 109c0-10-10-19-19-19l-253 0c-10 0-19 9-19 19l0 38c0 10 9 19 19 19l256 0c10 0 19-9 19-19l0-38z m0 109c0-10-10-20-19-20l-253 0c-10 0-19 10-19 20l0 38c0 10 9 19 19 19l256 0c10 0 19-9 19-19l0-38z"/>
<glyph unicode="&#57423;" d="M445 512l-378 0c-35 0-67-32-67-67l0-375c0-38 32-70 67-70l375 0c38 0 67 32 67 67l0 378c3 35-29 67-64 67z m-39-179l-195-195-109-36 36 109c0 0 179 183 195 195 16 13 86-60 73-73z m-204-179l-74-26 22 74c10 6 58-45 52-48z"/>
<glyph unicode="&#57424;" d="M445 509l-378 0c-35 0-67-32-67-71l0-374c0-38 32-67 67-67l375 0c38 0 67 32 67 67l0 374c3 39-29 71-64 71z m-192-103c45 0 80-35 80-76 0-16-7-36-23-61-3-7-6-13-9-19-7-10-13-23-19-32-7-7-10-13-13-13-7-13-26-13-32 0-3 0-7 6-10 13-6 9-13 22-19 32-6 6-10 12-13 19-13 25-22 45-22 61 0 41 35 76 80 76z m160-281l-314 0c-9 0-16 6-13 16l42 141c3 9 10 16 16 16l16 0c3-10 10-23 16-36l-16 0-35-102 262 0-35 106-26 0c7 12 13 25 16 35l23 0c6 0 13-7 16-16l41-141c7-13 0-19-9-19z m-131 205c0 16-13 28-29 28-16 0-29-12-29-28 0-16 13-29 29-29 16 0 29 13 29 29z"/>
<glyph unicode="&#57425;" d="M445 512l-378 0c-35 0-67-32-67-67l0-375c0-38 32-70 67-70l375 0c38 0 67 32 67 67l0 378c3 35-29 67-64 67z m-45-384c0-10-10-19-19-19l-253 0c-10 0-19 9-19 19l0 35c0 10 9 19 19 19l256 0c10 0 19-9 19-19l0-35z m-288 128l22 22 32-32 68 68 22-26-86-83-4-3z m288-19c0-10-10-19-19-19l-90 0c-9 0-19 9-19 19l0 38c0 10 10 19 19 19l93 0c10 0 19-9 19-19l0-38z m0 109c0-10-10-20-19-20l-253 0c-10 0-19 10-19 20l0 38c0 10 9 19 19 19l256 0c10 0 19-9 19-19l0-38z"/>
<glyph unicode="&#57426;" d="M445 512l-378 0c-35 0-67-32-67-67l0-375c0-38 32-70 67-70l375 0c38 0 67 32 67 67l0 378c3 35-29 67-64 67z m-307-298c-26 0-45 20-45 42 0 22 19 42 41 42 23 0 45-20 45-42 0-22-19-42-41-42z m118 0c-22 0-42 20-42 42 0 22 20 42 42 42 22 0 42-20 42-42 0-22-20-42-42-42z m118 0c-22 0-41 20-41 42 0 22 19 42 41 42 23 0 42-20 42-42 0-22-16-42-42-42z"/>
<glyph unicode="&#57427;" d="M0 444l0-376c0-37 30-68 68-68l376 0c37 0 68 30 68 68l0 376c0 37-30 68-68 68l-376 0c-37 0-68-30-68-68z m261-279l-77-45c-12-6-25 4-23 17l14 86-61 60c-10 9-5 25 8 27l86 13 39 78c5 12 22 12 28 0l38-78 86-13c13-2 18-18 9-27l-62-60 15-86c2-13-12-23-23-17z m57 53c-2 9 1 19 8 26l42 41-59 9c-10 1-18 7-22 16l-26 55 0-172c5 0 9-1 14-4l52-30z"/>
<glyph unicode="&#57428;" d="M444 512l-376 0c-37 0-68-30-68-68l0-376c0-37 30-68 68-68l376 0c37 0 68 30 68 68l0 376c0 37-30 68-68 68z m-222-375l-103 0c-9 0-17 7-17 17 0 9 8 17 17 17l103 0c9 0 17-8 17-17 0-10-8-17-17-17z m0 68l-103 0c-9 0-17 7-17 17 0 9 8 17 17 17l103 0c9 0 17-8 17-17 0-10-8-17-17-17z m0 68l-103 0c-9 0-17 8-17 17 0 10 8 17 17 17l103 0c9 0 17-7 17-17 0-9-8-17-17-17z m0 68l-103 0c-9 0-17 8-17 17 0 10 8 17 17 17l103 0c9 0 17-7 17-17 0-9-8-17-17-17z m188-187c0-10-8-17-17-17l-103 0c-9 0-17 7-17 17l0 76-26 26 26 26 0 76c0 10 8 17 17 17l103 0c9 0 17-7 17-17l0-204z"/>
<glyph unicode="&#57429;" d="M0 444l0-376c0-37 30-68 68-68l376 0c37 0 68 30 68 68l0 376c0 37-30 68-68 68l-376 0c-37 0-68-30-68-68z m395-144c32-62 10-181-127-196l-4 9c0 0 65 15 65 85 0 67-69 78-69 124 0 21 17 41 50 41 20 0 57-9 85-63z m-278-88c-32 62-10 181 127 196l4-9c0 0-65-15-65-85 0-67 69-78 69-124 0-21-17-41-50-41-20 0-57 9-85 63z"/>
<glyph unicode="&#57430;" d="M445 512l-378 0c-35 0-67-32-67-67l0-375c0-38 32-70 67-70l375 0c38 0 67 32 67 67l0 378c3 35-29 67-64 67z m-266-390c0-10-6-16-16-16l-41 0c-10 0-16 6-16 16l0 137c0 10 6 16 16 16l41 0c10 0 16-6 16-16z m0 208c0-10-6-16-16-16l-41 0c-10 0-20 6-20 16l0 60c0 10 7 16 16 16l42 0c10 0 16-6 16-16l0-60z m115-208c0-10-6-16-16-16l-44 0c-10 0-16 6-16 16l0 99c0 9 6 16 16 16l41 0c10 0 16-7 16-16l0-99z m0 169c0-9-6-16-16-16l-44 0c-10 0-16 7-16 16l0 99c0 10 6 16 16 16l41 0c10 0 16-6 16-16l0-99z m116-169c0-10-7-16-16-16l-42 0c-10 0-16 6-16 16l0 60c0 10 6 16 16 16l42 0c9 0 16-6 16-16z m0 131c0-10-7-16-16-16l-42 0c-10 0-16 6-16 16l0 137c0 10 6 16 16 16l42 0c9 0 16-6 16-16z m-173-45l0-22c0-4 3-10 9-10l23 0c3 0 9 3 9 10l0 22c0 3-3 10-9 10l-23 0c-6 0-9-4-9-10z m115-35l0-23c0-3 3-9 10-9l22 0c3 0 10 3 10 9l0 23c0 3-4 9-10 9l-22 0c-7-3-10-6-10-9z m0 208l0-23c0-3 3-6 6-6l23 0c3 0 9 3 9 10l0 19c0 3-3 9-9 9l-23 0c-3 0-6-6-6-9z m-230-135l0-22c0-3 3-10 9-10l23 0c3 4 6 7 6 13l0 19c0 7-3 10-6 10l-23 0c-3 0-9-3-9-10z m0 135l0-23c0-3 6-6 9-6l23 0c3 0 6 3 6 6l0 23c0 3-3 9-6 9l-23 0c-3 0-9-6-9-9z m115 0l0-23c0-3 3-6 9-6l23 0c3 0 9 3 9 10l0 19c0 3-3 9-9 9l-23 0c-6 0-9-6-9-9z"/>
<glyph unicode="&#57431;" d="M512 256c0 141-115 256-256 256-141 0-256-115-256-256 0-141 115-256 256-256 141 0 256 115 256 256z m-212-119c-11-4-21-8-28-10-6-3-14-4-23-4-14 0-25 4-33 11-8 6-12 15-12 25 0 5 1 9 1 13 1 4 2 9 3 14l14 52c2 4 3 9 3 13 1 5 2 9 2 12 0 7-2 12-4 14-3 3-8 4-16 4-3 0-7-1-11-2-4-1-7-2-10-3l4 16c9 3 18 7 27 10 8 2 17 4 24 4 14 0 25-4 32-10 8-7 12-16 12-27 0-2-1-6-1-11-1-6-2-11-3-16l-14-51c-1-4-3-8-3-14-1-5-2-9-2-12 0-6 2-11 5-13 3-3 8-4 15-4 4 0 8 1 12 2 5 1 8 2 10 3z m-2 207c-7-6-15-9-25-9-9 0-17 3-24 9-7 6-10 14-10 23 0 9 3 16 10 22 7 7 15 10 24 10 10 0 18-3 25-10 6-6 10-13 10-22 0-9-4-17-10-23z"/>
<glyph unicode="&#57432;" d="M286 404c-45-117-45-241 30-357 8-13 4-30-9-39-13-8-30-4-39 9-85 133-85 275-34 407 13 33 25 57 34 71 9 13 26 17 39 9 13-9 17-26 9-39-2-3-5-8-9-16-7-13-14-28-21-45z"/>
<glyph unicode="&#57433;" d="M212 449c7-13 14-28 21-45 45-117 45-241-29-357-9-13-5-30 8-39 13-8 30-4 39 9 85 133 85 275 34 407-12 33-25 57-34 71-9 13-26 17-39 9-13-9-17-26-8-39 1-3 4-8 8-16z"/>
<glyph unicode="&#57434;" d="M80 341c0-94 176-341 176-341 0 0 176 247 176 341 0 95-79 171-176 171-97 0-176-76-176-171z m88 0c0 47 39 86 88 86 49 0 88-39 88-86 0-47-39-85-88-85-49 0-88 38-88 85z"/>
<glyph unicode="&#57435;" d="M437 301c16 0 30-13 30-30l0-241c0-16-14-30-30-30l-361 0c-17 0-31 13-31 30l0 241c0 16 14 30 31 30l29 0 0 61c0 82 68 150 151 150 83 0 151-67 151-150l0-61z m-241 60l0-60 120 0 0 60c0 34-26 61-60 61-33 0-60-27-60-61z"/>
<glyph unicode="&#57436;" d="M405 320l0-124c0-17 13-31 29-31 17 0 30 14 30 31l0 124c0 17-13 32-30 32-16 0-29-15-29-32z m-357 0l0-124c0-17 13-31 30-31 16 0 29 14 29 31l0 124c0 17-13 32-29 32-17 0-30-15-30-32z m77-195c0-14 10-25 23-25l26 0 0-68c0-18 14-32 30-32 16 0 30 14 30 32l0 68 46 0 0-68c0-18 13-32 29-32 17 0 30 14 30 32l0 68 26 0c13 0 23 11 23 25l0 226-263 0z m218 380c1 2 1 5-1 6-2 2-5 1-6-1l-25-39c-17 7-36 11-55 11-19 0-38-4-55-11l-25 39c-1 2-4 3-6 1-2-1-2-4-1-6l25-37c-39-19-66-55-70-97l264 0c-4 42-31 78-70 97z m-157-81c0 9 6 16 14 16 9 0 15-7 15-16 0-8-6-15-15-15-8 0-14 7-14 15z m113 0c0 9 6 16 14 16 8 0 15-7 15-16 0-8-7-15-15-15-8 0-14 7-14 15z"/>
<glyph unicode="&#57437;" d="M216 385c23-7 38-10 45-10 9 0 25 4 46 11 21 7 40 10 55 10 26 0 49-6 69-20 11-7 23-17 34-30-17-14-29-26-37-37-14-19-21-40-21-63 0-26 7-49 22-69 15-20 32-33 51-39-8-24-21-50-40-77-27-40-55-60-82-60-11 0-26 3-45 10-19 6-36 10-49 10-13 0-28-4-46-11-17-7-31-10-42-10-33 0-65 27-97 80-31 52-47 104-47 155 0 47 12 85 36 114 24 30 55 45 92 45m199 111c0-2 0-4 0-6 0-13-3-27-9-42-7-15-17-29-30-42-12-11-24-19-35-22-7-3-18-4-33-5 0 30 8 56 25 78 16 23 43 38 80 46"/>
<glyph unicode="&#57438;" d="M399 157c-4-5-9-9-13-13-65-54-163-48-220 13-57 62-51 157 14 211 64 55 163 49 219-13 21-21 55-23 78-4 23 19 25 52 6 74-98 106-266 116-377 23-106-90-120-243-34-349-7-20-17-49-21-69-3-14-4-20-4-24 0-3 3-5 6-6 3 0 10 0 26 3 25 5 64 19 83 25 95-46 213-35 297 37 7 5 13 11 18 17l5 4c20 22 18 55-4 75-23 20-58 18-79-4z"/>
<glyph unicode="&#57439;" d="M367 201c0 0 0-4 0-5 0 0 0 2 0 5z m0-5c0-1 0-1 0 0z m-203-49l-49 0 0 95-115 0 0-165c0-14 12-26 25-26l191 0c14 0 26 12 26 26l0 165-78 0z m52 314l-191 0c-14 0-25-12-25-26l0-179 115 0 0 55-48 0 0 30 5 0c16 0 29 3 38 9 10 6 16 16 18 29l36 0 0-123 78 0 0 179c0 14-12 26-26 26z m271 0l-191 0c-14 0-26-12-26-26l0-108c0 29 23 52 52 52l139 0c28 0 51-23 51-52l0 108c0 14-12 26-25 26z m-27-225c7-10 10-22 10-37 0-8-1-16-3-24-2-9-6-16-12-23-6-7-14-12-25-16-10-4-23-6-40-6-24 0-41 6-53 18-11 12-17 29-17 52l0 1 47 0c0-14 2-24 5-31 4-7 11-11 22-11 6 0 10 1 14 3 3 2 6 5 8 8 2 4 3 8 4 12 1 5 1 10 1 15 0 5-1 10-1 15-1 4-3 8-5 12-2 4-6 7-10 9-4 2-9 3-16 3l-16 0 0 6-103 0 0-165c0-14 12-26 26-26l191 0c14 0 25 12 25 26l0 165-58 0c3-2 4-4 6-6z m1 129l-140 0c-28 0-51-23-51-51l0-58 100 0 3 6 16 0c5 0 9 1 13 2 3 2 6 3 8 6 2 2 4 4 5 7 1 3 2 6 2 9 0 7-2 12-6 14-4 3-10 5-18 5-5 0-9-1-13-2-3-1-6-3-7-5-2-2-3-5-4-7-1-3-1-7-1-10l-45 0c0 15 6 26 18 33 12 7 30 10 53 10 22 0 39-3 52-9 12-6 18-15 18-28 0-9-3-16-10-22-6-5-13-7-23-9l81 0 0 58c0 28-23 51-51 51z"/>
<glyph unicode="&#57440;" d="M512 256l-256-117-256 117 96 45 160-74 160 74z m0-138l-256-118-256 118 96 44 160-73 160 73z m-256 158l256 118-256 118-256-118z"/>
<glyph unicode="&#57441;" d="M0 480l0-64c0-18 14-32 32-32l448 0c18 0 32 14 32 32l0 64c0 18-14 32-32 32l-448 0c-18 0-32-14-32-32z m0-192l0-64c0-18 14-32 32-32l448 0c18 0 32 14 32 32l0 64c0 18-14 32-32 32l-448 0c-18 0-32-14-32-32z m0-192l0-64c0-18 14-32 32-32l448 0c18 0 32 14 32 32l0 64c0 18-14 32-32 32l-448 0c-18 0-32-14-32-32z"/>
<glyph unicode="&#57442;" d="M59 181l-59-181 181 59 328 328c24 21-98 144-122 123-25-22-328-329-328-329z m106-99l-123-40 40 122c10 10 91-75 83-82z"/>
<glyph unicode="&#57443;" d="M35 311l-18-98-17 0 17 98z m11-30l17 0-12-68-17 0z m48-34c1-6 2-12 2-17l0 0c3 5 5 10 8 17l17 34 18 0-38-68-17 0-13 68 18 0z m70-22c8 0 14 1 19 3l1-12c-7-2-15-4-25-4-22 0-33 13-29 34 3 19 18 36 40 36 22 0 26-18 23-33 0-3-1-5-1-7l-46 0c-2-12 7-17 18-17z m3 46c-11 0-17-10-19-17l30 0c1 6 0 17-11 17z m39-3l3 13 0 3c2 8 6 17 13 22 5 5 13 7 19 7 4 0 8-1 10-2l-3-13c-2 1-4 1-7 1-9 0-13-7-15-15l0-3 15 0-2-13-15 0-10-55-17 0z m174-43c8 0 14 1 20 3l0-12c-6-2-15-4-24-4-23 0-33 13-30 34 4 19 18 36 40 36 23 0 27-18 24-33-1-3-1-5-2-7l-46 0c-1-12 7-17 18-17z m83 104c-1-23-37-62-37-90 0-9 2-16 8-21 4-4 12-7 23-8 2 0 4 0 7 0 0 0 1 0 1 0 1 0 1 0 2 0 0 0 0 0 1 0 0 0 1 0 1 0 2 0 4 0 6 0 9 1 17 3 22 7 6 4 10 10 13 17 8 24-10 56-4 76-5-6-13-13-20-22-8 16-17 31-23 41z m0-28c3-5 8-14 14-23-13-15-26-31-30-44-2-5-3-9-3-12-22 15 10 63 19 79z m-80-30c-10 0-17-10-19-17l31 0c1 6 0 17-12 17z m-325 33c3 0 5-1 6-3 1-1 2-3 1-6l0-5-18 0 3 14z m244-23c-4 0-7-2-9-6l-3-4-12-26c-2-5-4-10-6-14l0 0c-1 4-1 9-2 14l-6 36-19 0 14-62c1-2 1-3 1-3 0-1-1-2-2-3-3-5-8-9-11-11-4-3-8-4-11-5l1-14c5 0 12 3 20 9 9 6 18 18 31 43l20 36 3 4 3 5 0 1z m2-67l17 0 7 39c2 9 10 15 20 13l3 16c-21 2-37-11-40-29z"/>
<glyph unicode="&#57444;" d="M401 307c10 0 20-11 24-25l60-205c4-14-3-26-17-26l-450 0c-13 0-21 12-17 26l60 205c4 14 15 25 24 25l23 0c5-15 12-32 22-51l-24 0-50-154 374 0-49 154-35 0c10 19 17 36 22 51z m-230-73c10-16 20-32 29-48 6-9 11-16 14-20 12-17 37-17 49 0 2 4 7 11 13 20 10 16 20 32 29 48 5 9 10 18 15 26 20 37 31 66 31 88 0 63-51 113-113 113-62 0-112-50-112-113 0-22 11-51 30-88 5-8 10-17 15-26z m67 155c23 0 41-18 41-41 0-22-18-41-41-41-23 0-41 19-41 41 0 23 18 41 41 41z"/>
<glyph unicode="&#57445;" d="M96 512l-64 0c-18 0-32-14-32-32l0-96c0-18 14-32 32-32l64 0c18 0 32 14 32 32l0 96c0 18-14 32-32 32z m0-96l-64 0 0 64 64 0z m192 96l-64 0c-18 0-32-14-32-32l0-160c0-18 14-32 32-32l64 0c18 0 32 14 32 32l0 160c0 18-14 32-32 32z m0-96l-64 0 0 64 64 0z m0-192l-64 0c-18 0-32-14-32-32l0-160c0-18 14-32 32-32l64 0c18 0 32 14 32 32l0 160c0 18-14 32-32 32z m0-96l-64 0 0 64 64 0z m192 384l-64 0c-18 0-32-14-32-32l0-224c0-18 14-32 32-32l64 0c18 0 32 14 32 32l0 224c0 18-14 32-32 32z m0-96l-64 0 0 64 64 0z m-384-128l-64 0c-18 0-32-14-32-32l0-224c0-18 14-32 32-32l64 0c18 0 32 14 32 32l0 224c0 18-14 32-32 32z m0-96l-64 0 0 64 64 0z m384-32l-64 0c-18 0-32-14-32-32l0-96c0-18 14-32 32-32l64 0c18 0 32 14 32 32l0 96c0 18-14 32-32 32z m0-96l-64 0 0 64 64 0z"/>
<glyph unicode="&#57446;" d="M253 314l-147-147-1 0-9-9-96 96 37 36 58-57 120 119z m-253-282c0-18 14-32 32-32l448 0c18 0 32 14 32 32l0 64c0 18-14 32-32 32l-448 0c-18 0-32-14-32-32z m288 192c0-18 14-32 32-32l160 0c18 0 32 14 32 32l0 64c0 18-14 32-32 32l-160 0c-18 0-32-14-32-32z m-288 192c0-18 14-32 32-32l448 0c18 0 32 14 32 32l0 64c0 18-14 32-32 32l-448 0c-18 0-32-14-32-32z m253-102l-147-147-1 0-9-9-96 96 37 36 58-57 120 119z m-253-282c0-18 14-32 32-32l448 0c18 0 32 14 32 32l0 64c0 18-14 32-32 32l-448 0c-18 0-32-14-32-32z m288 192c0-18 14-32 32-32l160 0c18 0 32 14 32 32l0 64c0 18-14 32-32 32l-160 0c-18 0-32-14-32-32z m-288 192c0-18 14-32 32-32l448 0c18 0 32 14 32 32l0 64c0 18-14 32-32 32l-448 0c-18 0-32-14-32-32z"/>
<glyph unicode="&#57447;" d="M333 461c-29 0-51-23-51-51l0-308c0-28 23-51 51-51l128 0c28 0 51 23 51 51l0 308c0 28-23 51-51 51z m-90-205l39-38 0 76z m-214 205c-16 0-29-13-29-29 0-17 13-30 29-30l172 0c16 0 29 13 29 30 0 16-13 29-29 29z m0-117c-16 0-29-13-29-29 0-17 13-30 29-30l172 0c16 0 29 13 29 30 0 16-13 29-29 29z m0-234c-16 0-29-13-29-30 0-16 13-29 29-29l172 0c16 0 29 13 29 29 0 17-13 30-29 30z m0 117c-16 0-29-13-29-30 0-16 13-29 29-29l172 0c16 0 29 13 29 29 0 17-13 30-29 30z"/>
<glyph unicode="&#57448;" d="M496 278l-14-44-5 18-9 26-18 0 24-61-1-5c-2-3-4-5-7-5-3 0-6 3-8 6l-4-15c3-2 9-4 15-4 9 0 14 5 18 15l25 69z m-58 14c4 0 8-2 10-5l3 14c-4 2-9 4-16 4-13 0-20-7-20-21l0-6-9 0 0-12 9 0 0-48 16 0 0 48 15 0 0 12-15 0 0 6c0 6 2 8 7 8z m-57-14l0-60 16 0 0 60z m-16-14c3 0 5-1 7-3l2 18c-2 0-3 1-5 1-9 0-14-7-17-17l0 15-16 0 0-60 16 0 0 31c0 8 6 15 13 15z m-68 3c11 0 15-8 15-19 0-12-4-19-15-19-9 0-14 7-14 19 0 12 4 19 14 19z m0-50c20 0 32 14 32 31 0 19-13 32-32 32-18 0-31-14-31-32 0-19 13-31 31-31z m-37 49l0 12-17 0 0 16-16-1 0-15-9 0 0-12 9 0 0-30c0-14 8-19 19-19 6 0 13 2 18 5l-5 15c-3-5-6-7-10-7-3 0-6 1-6 9l0 27z m-109-39c8-6 17-10 31-10 18 0 32 8 32 24 0 31-43 22-43 37 0 6 6 9 14 9 8 0 16-4 19-13l10 16c-6 5-17 10-30 10-18 0-31-10-31-23 0-29 44-21 44-37 0-7-7-10-15-10-10 0-18 7-21 15z m248 68c0 5-5 9-10 9-5 0-9-4-9-9 0-5 4-9 9-9 5 0 10 4 10 9z m-280-20c13-24 4-71-52-76l-2 3c0 0 27 6 27 34 0 26-28 30-28 48 0 8 7 16 20 16 9 0 24-3 35-25z m-114-34c-13 24-4 71 53 77l1-4c0 0-26-6-26-33 0-26 28-31 28-49 0-8-7-16-21-16-8 0-23 4-35 25z"/>
<glyph unicode="&#57449;" d="M380 183c75 17 132 83 132 163 0 92-75 166-168 166-93 0-169-74-169-166 0-5 0-9 1-14 2-36 18-72 45-101 19-15 32-39 32-65 0-46-38-83-85-83-46 0-84 37-84 83 0 33 20 61 47 75 18 8 19 18 15 27-8 19-13 40-14 60-76-16-132-82-132-162 0-46 19-87 49-117 31-30 73-49 119-49 93 0 169 74 169 166 0 3 0 5 0 7 0 2-1 5-1 7-3 40-21 77-48 104-1 1-2 1-3 2 0 0-1 1-1 1-15 15-25 36-25 59 0 46 38 83 85 83 46 0 84-37 84-83 0-32-18-59-44-73-16-10-24-14-20-27 8-19 14-41 16-63z"/>
<glyph unicode="&#57450;" d="M209 468l0-201-209-1 0 174z m0-426l-209 29 0 174 209-1z m303 470l0-243-277-2 0 205z m0-512l-277 39-1 203 278 0z"/>
<glyph unicode="&#57451;" d="M364 442l69 70 79-79-70-69 57-57-192 0 0 188z m-216-372l-69-70-79 79 70 69-57 57 192 0 0-196z m294 78l70-69-79-79-69 70-57-61 0 196 192 0z m-372 216l-70 69 79 79 69-70 57 53 0-188-192 0z"/>
<glyph unicode="&#57452;" d="M96 320l320 0c53 0 96-29 96-64 0-35-43-64-96-64l-320 0c-53 0-96 29-96 64 0 35 43 64 96 64z"/>
<glyph unicode="&#57453;" d="M352 512l-192 0c-35 0-64-29-64-64l0-384c0-35 29-64 64-64l192 0c35 0 64 29 64 64l0 384c0 35-29 64-64 64z m-96-480c-19 0-32 13-32 32 0 19 13 32 32 32 19 0 32-13 32-32 0-19-13-32-32-32z m128 128c0-16-13-32-32-32l-192 0c-16 0-32 13-32 32l0 256c0 16 13 32 32 32l192 0c16 0 32-13 32-32z"/>
<glyph unicode="&#57454;" d="M163 255l228 218c5 5 9 10 9 17 0 12-10 22-23 22-7 0-13-3-17-8 0 0-236-224-244-232-8-8-11-22 2-34 13-12 244-234 245-234 4-4 9-6 14-6 13 0 23 10 23 22 0 7-5 13-9 18z"/>
<glyph unicode="&#57455;" d="M349 255l-228 218c-5 5-9 10-9 17 0 12 10 22 23 22 7 0 13-3 17-8 0 0 236-224 244-232 8-8 11-22-2-34-13-12-244-234-245-234-4-4-9-6-14-6-13 0-23 10-23 22 0 7 5 13 9 18z"/>
<glyph unicode="&#57456;" d="M250 448c18 0 32 14 32 32 0 18-14 32-32 32l-219 0c-11 0-21-6-27-16-2-5-4-10-4-16l0-448c0-4 1-7 2-10 4-13 16-22 29-22l219 0c18 0 32 14 32 32 0 18-14 32-32 32l-186 0 0 384z m250-186c0 14-11 26-26 26l-222-1 58 58c30 30-15 74-45 45l-113-112c-13-13-13-33 0-45l113-112c30-30 75 15 45 45l-58 57 222 1c15 0 26 11 26 25z"/>
<glyph unicode="&#57457;" d="M262 448c-18 0-32 14-32 32 0 18 14 32 32 32l219 0c11 0 21-6 27-16 2-5 4-10 4-16l0-448c0-4-1-7-2-10-4-13-16-22-29-22l-219 0c-18 0-32 14-32 32 0 18 14 32 32 32l186 0 0 384z m-250-186c0 14 11 26 26 26l222-1-58 58c-30 30 15 74 45 45l113-112c13-13 13-33 0-45l-113-112c-30-30-75 15-45 45l58 57-222 1c-15 0-26 11-26 25z"/>
<glyph unicode="&#57458;" d="M365 490c0 12-10 22-23 22l-320 0c-6 0-12-3-16-6-3-4-6-10-6-16l0-324c0-12 10-22 22-22 13 0 23 10 23 22l0 301 301 0c9 0 19 10 19 23z m73-74c0 13-9 22-22 22l-320 0c-6 0-13-3-16-6-3-3-6-10-6-16l0-320c0-13 9-22 22-22 13 0 22 9 22 22l0 298 298 0c13 0 22 9 22 22z m42-51l-301 0c-16 0-32-13-32-32l0-301c0-16 13-32 32-32l301 0c16 0 32 13 32 32l0 301c0 19-13 32-32 32z m-13-320l-275 0 0 275 275 0z m-93 137l68 0 0-44-68 0z m-160 0l138 0 0-22-138 0z m0-44l138 0 0-23-138 0z m0-45l138 0 0-23-138 0z m160 22l68 0 0-45-68 0z m-160 183l228 0 0-93-228 0z"/>
<glyph unicode="&#57459;" d="M169 340c-18-19-35-136-18-153 8-8 20-12 31-13l4 0c0 0 0-17 0-17l0-141c0 0 2-14 27-16 25-1 25 12 25 12l9 71 9 68 9-68 9-71c0 0 0-13 25-12 25 2 27 16 27 16l0 141c0 0 0 17 0 17l4 0c11 1 23 5 31 13 17 17 0 134-18 153-4 5-10 8-16 11-19-17-44-27-71-27-27 0-52 10-71 27-6-3-11-6-16-11z m87 172c-48 0-87-38-87-85 0-48 39-86 87-86 48 0 87 38 87 86 0 47-39 85-87 85z"/>
<glyph unicode="&#57460;" d="M486 461l-460 0c-16 0-26-10-26-26l0-358c0-16 13-26 26-26l460 0c13 0 26 10 26 26l0 358c0 16-13 26-26 26z m-25-359l-410 0 0 308 410 0z m-256 103c-8 0-26 38-36 38-13 0-67-89-67-89l308 0c0 0-80 179-98 179-18 0-100-128-107-128z m-26 115c0-21-17-38-38-38-21 0-39 17-39 38 0 21 18 38 39 38 21 0 38-17 38-38z"/>
<glyph unicode="&#57461;" d="M386 446l-63-63c0 0-270 68-280 62-9-6-48-38-42-43 7-6 224-118 224-118l-51-51c0 0-80 0-91-5-12-5-43-33-43-43 0-10 107-38 107-38 0 0 31-104 38-107 7-3 38 34 43 43 5 8 5 91 5 91l51 51c0 0 110-215 118-225 4-4 36 32 43 43 7 11-62 280-62 280l63 63c0 0 90 90 60 120-30 30-120-60-120-60z"/>
<glyph unicode="&#57462;" d="M49 512c-9 0-17-7-17-16l0-480c0-9 8-16 17-16 3 0 6 1 8 2l415 240c5 3 8 8 8 14 0 6-3 11-8 14l-412 238c-3 3-7 4-11 4z"/>
<glyph unicode="&#57463;" d="M197 187l-133 0c-35 0-64 29-64 64 0 36 29 64 64 64l133 0 0 133c0 35 29 64 64 64 36 0 64-29 64-64l0-133 123 0c35 0 64-29 64-64 0-36-29-64-64-64l-123 0 0-123c0-35-29-64-64-64-36 0-64 29-64 64z"/>
<glyph unicode="&#57464;" d="M256 512c-141 0-256-115-256-256 0-141 115-256 256-256 141 0 256 115 256 256 0 141-115 256-256 256z m23-384l-56 0 0 55 56 0z m58 165c-3-8-7-14-11-19-5-6-10-10-15-14-5-4-10-7-15-11-5-4-9-8-13-13-4-5-6-11-7-18l0-13-48 0 0 16c1 10 2 19 6 26 3 7 7 12 11 17 4 5 9 10 14 13 4 4 9 7 13 11 4 3 7 7 10 12 2 4 3 9 3 16 0 11-3 19-8 24-5 5-13 8-22 8-7 0-12-1-17-4-5-2-8-6-11-10-3-4-6-9-7-14-2-6-2-12-2-19l-53 0c0 13 3 25 7 36 4 11 10 20 17 28 8 8 17 14 28 18 10 5 22 7 35 7 17 0 31-2 43-7 11-5 20-10 27-17 7-7 12-15 15-23 3-8 4-15 4-22 0-12-1-21-4-28z"/>
<glyph unicode="&#57465;" d="M283 472c119 0 216-97 216-216 0-119-97-216-216-216-44 0-85 14-120 37-15 12-16 31-5 42 12 11 29 7 46-4 23-13 50-21 79-21 89 0 162 73 162 162 0 89-73 162-162 162-89 0-162-73-162-162 0-1 0-2 0-3l22 22c25 25 62-13 37-39l-67-68c-10-10-27-10-38 0l-67 68c-25 26 13 64 38 39l21-22c0 1 0 2 0 3 0 119 97 216 216 216z m0-108c15 0 27-12 27-27l0-70 46-46c5-5 8-11 8-19 0-15-12-27-27-27-8 0-14 3-19 8l-62 62 0 92c0 15 12 27 27 27z"/>
<glyph unicode="&#57466;" d="M0 128c31 221 249 364 439 152l0 46c8 51 71 50 73 0l0-158c0-25-14-40-37-40l-146 0c-46 3-47 70 0 79l60 0c-187 208-333 4-389-79z"/>
<glyph unicode="&#57467;" d="M221 472c-122 0-221-97-221-216 0-119 99-216 221-216 46 0 88 14 123 37 16 12 17 31 5 42-11 11-29 7-46-4-24-13-52-21-82-21-91 0-166 73-166 162 0 89 75 162 166 162 92 0 166-73 166-162 0-1 0-2 0-3l-22 22c-25 25-64-13-38-39l69-68c10-10 28-10 38 0l69 68c26 26-12 64-38 39l-22-22c0 1 0 2 0 3 0 119-99 216-222 216z"/>
<glyph unicode="&#57468;" d="M200 102c-111 0-200 88-200 197 0 109 89 198 200 198 110 0 199-89 199-198 0-37-10-73-29-103 1 0 2-1 3-2l115-115c12-12 12-31 0-43l-10-10c-12-12-31-12-43 0l-115 115c-34-25-75-39-120-39z m150 197c0 82-68 149-150 149-83 0-150-67-150-149 0-82 67-148 150-148 82 0 150 66 150 148z"/>
<glyph unicode="&#57469;" d="M256 512c-141 0-256-115-256-256 0-141 115-256 256-256 141 0 256 115 256 256 0 141-115 256-256 256z m0-448c-106 0-192 86-192 192 0 106 86 192 192 192 106 0 192-86 192-192 0-106-86-192-192-192z m32 112c0 26-32 144-32 144 0 0-32-118-32-144 0-26 14-48 32-48 18 0 32 22 32 48z m-96 176c0-18-14-32-32-32-18 0-32 14-32 32 0 18 14 32 32 32 18 0 32-14 32-32z m192 0c0-18-14-32-32-32-18 0-32 14-32 32 0 18 14 32 32 32 18 0 32-14 32-32z m-96 32c0-18-14-32-32-32-18 0-32 14-32 32 0 18 14 32 32 32 18 0 32-14 32-32z"/>
<glyph unicode="&#57470;" d="M313 48l199 416-352-265-27-137 105 59z m-193 201l-120 86 512 129z"/>
<glyph unicode="&#57471;" d="M495 302l-32 2c-8 1-16 7-18 13l-12 29c-3 7-2 17 3 22l22 24c4 5 5 14 0 20l-46 46c-6 5-15 4-20 0l-24-22c-5-5-15-6-22-3l-29 12c-6 2-12 10-13 18l-2 32c0 7-6 14-13 15 0 0-17 2-33 2-16 0-33-2-33-2-7-1-13-8-13-15l-2-32c-1-8-7-16-13-18l-29-12c-7-3-17-2-22 3l-24 22c-5 4-14 5-20 0l-46-46c-5-6-4-15 0-20l22-24c5-5 6-15 3-22l-12-29c-2-6-10-12-18-13l-32-2c-7 0-14-6-15-13 0 0-2-17-2-33 0-16 2-33 2-33 1-7 8-13 15-13l32-2c8-1 16-7 18-13l12-29c3-7 2-17-3-22l-22-24c-4-5-5-14 0-20l46-46c6-5 15-4 20 0l24 22c5 5 15 6 22 3l29-12c6-2 12-10 13-18l2-32c0-7 6-14 13-15 0 0 17-2 33-2 16 0 33 2 33 2 7 1 13 8 13 15l2 32c1 8 7 16 13 18l29 12c7 3 17 2 22-3l24-22c5-4 14-5 20 0l46 46c5 6 4 15 0 20l-22 24c-5 5-6 15-3 22l12 29c2 6 10 12 18 13l32 2c7 0 14 6 15 13 0 0 2 17 2 33 0 16-2 33-2 33-1 7-8 13-15 13z m-303-46c0 35 29 64 64 64 35 0 64-29 64-64 0-35-29-64-64-64-35 0-64 29-64 64z"/>
<glyph unicode="&#57472;" d="M17 239c0 86 45 163 114 204 11 6 35 7 45-13 10-20 0-40-17-50-45-29-74-83-74-141 0-94 77-171 171-171 94 0 171 77 171 171 0 58-29 112-74 141-17 10-27 30-17 50 10 20 34 19 45 13 69-41 114-118 114-204 0-110-74-202-174-230-14-6-35-9-65-9-13 0-22 1-29 2-118 14-210 115-210 237z m205 239l0-205c0-19 15-34 34-34 19 0 34 15 34 34l0 205c0 19-15 34-34 34-19 0-34-15-34-34z"/>
<glyph unicode="&#57473;" d="M448 128c-61 31-143 57-166 68 69 18 102 106 102 185 0 88-42 131-128 131-86 0-128-43-128-131 0-80 34-169 104-186-20-7-111-39-168-67-64-32-50-66-64-128l512 0c-14 62 0 96-64 128z"/>
<glyph unicode="&#57474;" d="M342 427l-172 0c-94 0-170-77-170-171 0-94 77-171 170-171l172 0c94 0 170 77 170 171 0 94-77 171-170 171z m-1-313c-78 0-142 63-142 142 0 78 64 142 142 142 79 0 143-63 143-142 0-78-64-142-143-142z"/>
<glyph unicode="&#57475;" d="M368 416c-26 16-45 22-67 35-3 0-7 3-10 7-13 9-35 32-54 54 0-10-3-19-7-26-3-16-9-22-16-28 0 0 0 0-3-4-25-19-41-25-61-38-3 0-6-3-9-3-13-10-35-26-58-51-25-32-51-77-51-141 0-42 10-77 29-109 22-38 54-67 93-86 32-16 67-26 105-26 119 0 221 86 221 218 0 131-96 188-112 198z m-301-96c-3 6 3 22 19 42 4 3 4 3 7 6 25 29 61 48 70 51 7 3 26 13 48 29 13 10 23 19 29 51 0 0 0-3 0-3 6-19 6-29 6-32 0-3-3-16-9-22-3 0-7 0-7 0 0-4 4-4 4-7 0-6-4-16-29-41-26-26-64-48-93-64-26-20-42-16-45-10z m304-272c-3-3-25-19-51-19-26-3-64-3-83 16-3 3-3 9 0 9 3 4 3 4 6 4 3 0 3 0 3 0 10-7 26-13 58-13 32 0 54 9 64 16 3 3 6 0 6 0 0-7 0-10-3-13z m-86 45c3 3 13 13 22 16 10 3 13 3 19 3 7 0 16 0 23-3 6-3 9-13 13-19 3-7 0-7-4-10-3-3-3 0-6 6-6 4-10 10-26 10-16 0-22-6-32-13-9-6-12-9-12-6-4 6-4 9 3 16z m131-7c-19 0-54 58-77 58-29 0-89-61-141-61-28 0-38 3-48 10-12 13-22 29-22 51 0 38 35 74 83 74 58 0 99-58 128-58 26 0 74 48 96 48 26 0 32-26 32-42 0-16-6-38-19-57-13-16-19-23-32-23z"/>
<glyph unicode="&#57476;" d="M0 448l0-384c0-35 29-64 64-64l384 0c35 0 64 29 64 64l0 384c0 35-29 64-64 64l-384 0c-35 0-64-29-64-64z m274-251l-66 0 0 77 66 0 0 56c0 66 40 102 99 102 28 0 52-2 59-3l0-69-41 0c-31 0-38-15-38-37l0-49 76 0-10-77-66 0 0-197-79 0z"/>
<glyph unicode="&#57477;" d="M256 512c-141 0-256-115-256-256 0-141 115-256 256-256 141 0 256 115 256 256 0 141-115 256-256 256z m-112-352c-53 0-96 43-96 96 0 53 43 96 96 96 53 0 96-43 96-96 0-53-43-96-96-96z m224 0c-53 0-96 43-96 96 0 53 43 96 96 96 53 0 96-43 96-96 0-53-43-96-96-96z"/>
<glyph unicode="&#57478;" d="M463 417c-3 3-7 5-11 5-5 0-9-2-12-5l-190-189-83 83c-3 3-7 5-11 5-5 0-9-2-12-5l-40-40c-6-6-6-17 0-23l134-135c3-2 7-4 10-4 1 0 2 0 2 0 5 0 9 1 12 4l241 241c6 7 6 17 0 24m-219-286c-9-8-20-13-33-13l-9 0-2 1c-8 2-16 6-22 12l-134 135c-9 9-13 20-13 33 0 12 4 24 13 32l40 40c9 9 20 14 33 14 12 0 24-5 33-14l61-62 132 131-88 88c-23 23-61 23-84 0l-194-194c-23-23-23-61 0-84l194-194c23-23 61-23 84 0l194 194c23 23 23 61 0 84"/>
<glyph unicode="&#57479;" d="M448 512l-384 0c-35 0-64-29-64-64l0-384c0-35 29-64 64-64l384 0c35 0 64 29 64 64l0 384c0 35-29 64-64 64z m-105-157c0-35-20-52-41-67-6-6-13-13-13-23 0-11 7-17 12-21l18-13c21-18 40-34 40-66 0-45-44-90-127-90-70 0-104 33-104 68 0 17 9 41 37 58 30 18 71 20 93 21-7 9-15 18-15 33 0 8 3 12 5 18-5 0-11-1-15-1-52 0-81 38-81 75 0 21 10 46 31 63 28 22 66 28 92 28l95 0-31-19-30 0c11-9 34-28 34-64z m-148 15c0 12 2 25 10 35 8 9 22 15 34 15 41 0 61-53 61-87 0-8-1-23-12-34-7-8-21-14-33-14-41 0-60 53-60 85z m-24-217c0 33 31 45 41 48 21 7 47 8 51 8 5 0 7 0 11 0 37-26 53-39 53-63 0-29-25-51-71-51-52 0-85 24-85 58z"/>
<glyph unicode="&#57480;" d="M143 370c0 12 2 25 11 35 7 9 21 15 33 15 41 0 61-53 61-87 0-9-1-24-12-35-7-7-20-13-33-13-41 0-60 53-60 85z m-24-218c0 34 31 45 41 49 21 7 47 8 51 8 5 0 7 0 11-1 37-25 53-38 53-62 0-30-25-51-71-51-52 0-85 24-85 57z m329 360l-384 0c-35 0-64-29-64-64l0-384c0-35 29-64 64-64l384 0c35 0 64 29 64 64l0 384c0 35-29 64-64 64z m-268-437c-70 0-104 32-104 67 0 18 9 42 37 58 30 18 71 21 93 22-7 9-15 18-15 32 0 8 3 13 5 19-5-1-10-1-15-1-52 0-81 37-81 74 0 22 10 46 31 64 28 22 66 28 92 28l95 0-31-19-30 0c11-9 34-28 34-64 0-35-20-52-41-67-6-7-13-13-13-24 0-10 7-16 12-20l18-13c21-18 41-34 41-67 0-44-45-89-128-89z m258 187l-49 0 0-47-24 0 0 47-48 0 0 24 48 0 0 47 24 0 0-47 49 0z"/>
<glyph unicode="&#57481;" d="M405 288c3-12 5-24 5-37 0-83-69-150-154-150-85 0-154 67-154 150 0 13 2 25 5 37l-43 0 0-205c0-11 9-19 19-19l346 0c10 0 19 8 19 19l0 205z m24 160l-58 0c-10 0-19-9-19-19l0-58c0-10 9-19 19-19l58 0c10 0 19 9 19 19l0 58c0 10-9 19-19 19z m-269-192c0-53 43-96 96-96 53 0 96 43 96 96 0 53-43 96-96 96-53 0-96-43-96-96z m-101-255c-33 0-59 26-59 59l0 393c0 33 26 59 59 59l393 0c33 0 59-26 59-59l0-393c0-33-26-59-59-59z"/>
<glyph unicode="&#57482;" d="M448 512l-384 0c-35 0-64-29-64-64l0-384c0-35 29-64 64-64l384 0c35 0 64 29 64 64l0 384c0 35-29 64-64 64z m-288-448l-80 0 0 256 80 0z m-40 288l-1 0c-24 0-39 18-39 40 0 23 16 40 40 40 25 0 40-17 40-40 0-22-15-40-40-40z m320-288l-91 0 0 128c0 32 1 66-27 66-22 0-35-14-41-28-2-5-2-12-2-19l-1-147-86 0c0 64 1 234 0 256l86 0 0-40c10 17 29 40 71 40 52 0 91-34 91-106z"/>
<glyph unicode="&#57483;" d="M420 429c-23-23-55-56-89-92-35 69-76 133-101 175-5-99-165-266-166-387 0-37 10-67 35-89 21-19 55-31 104-35 10-1 20-1 30-1 3 0 5 0 8 0 2 0 3 0 5 0 2 0 4 0 5 0 3 0 5 0 7 0 9 0 17 0 26 1 42 3 74 14 97 29 28 18 46 44 57 75 37 101-44 241-18 324z m-263-324c-9-23-12-42-8-58-106 61 38 272 79 343 14-22 37-59 60-100-56-63-110-131-131-185z"/>
<glyph unicode="&#57484;" d="M255 511c-141 0-255-114-255-256 0-104 63-194 153-234-1 18 0 40 4 59 5 21 33 139 33 139 0 0-8 17-8 41 0 38 22 66 49 66 24 0 35-18 35-38 0-24-15-59-23-91-6-27 14-49 41-49 48 0 81 62 81 135 0 56-38 98-107 98-77 0-126-57-126-122 0-22 7-38 17-50 5-6 6-8 4-14-1-5-4-16-5-21-2-6-7-9-13-6-36 14-52 53-52 97 0 73 61 160 182 160 98 0 162-71 162-146 0-101-56-175-138-175-27 0-53 14-62 31 0 0-15-58-18-70-6-20-16-39-26-55 23-6 47-10 72-10 141 0 256 114 256 255 0 142-115 256-256 256"/>
<glyph unicode="&#57485;" d="M339 113c5 4 7 11 3 16-4 5-11 6-17 2-40-29-80-29-118-11-10 5-17 9-20 12-5 4-12 3-16-2-4-5-4-12 1-16 5-4 13-9 25-14 45-21 94-22 142 13z m-118 103c0 22-18 40-41 40-22 0-40-18-40-40 0-22 18-40 40-40 23 0 41 18 41 40z m151 0c0 22-18 40-40 40-23 0-41-18-41-40 0-22 18-40 41-40 22 0 40 18 40 40z m140 46c0 34-26 62-58 62-16 0-31-7-42-18-38 23-87 38-142 41 8 28 29 108 32 107 25-7 81-22 94-25 2-27 24-48 52-48 29 0 52 23 52 51 0 29-23 52-52 52-22 0-41-14-49-33l-103 28c-6 2-12-2-14-8l-35-124c-57-2-108-17-147-41-11 11-26 18-42 18-32 0-58-28-58-62 0-22 10-41 26-52-2-7-3-15-3-22 0-88 104-160 233-160 129 0 233 72 233 160 0 7-1 15-3 22 16 11 26 30 26 52z m-64 199c16 0 29-13 29-29 0-15-13-28-29-28-16 0-29 13-29 28 0 16 13 29 29 29z m-425-199c0 22 16 40 35 40 9 0 16-4 22-10-21-16-37-36-47-58-6 7-10 17-10 28z m233-211c-116 0-209 61-209 137 0 75 93 136 209 136 116 0 209-61 209-136 0-76-93-137-209-137z m223 183c-10 22-26 42-47 58 6 6 13 10 22 10 19 0 35-18 35-40 0-11-4-21-10-28z"/>
<glyph unicode="&#57486;" d="M403 68c0-29 23-52 51-52 29 0 52 23 52 51 0 2 0 4-1 5 1 1 1 2 0 3-33 229-217 408-448 434-1 0-2 0-2 0-1 0-3 0-4 0-28 0-51-23-51-51 0-29 23-52 51-52 1 0 2 0 2 0 179-23 321-162 350-338z m-168-20c-19 96-96 172-193 189-1 0-1 0-2 1-23 4-40 24-40 48 0 28 22 50 50 50 5 0 10-1 15-2 133-26 238-130 266-262 1-4 2-8 2-13 0-27-22-49-50-49-23 0-42 15-48 37 0 0 0 0 0 1z m-165-47c-39 0-70 32-70 70 0 39 31 70 70 70 39 0 70-31 70-70 0-38-31-70-70-70z"/>
<glyph unicode="&#57487;" d="M230 347l0-215c-8 0-17 0-25 0l0 222c9-1 17-3 25-7z m-76-215l0 215c8 4 16 6 25 7l0-222c-9 0-17 0-25 0z m292 0c-1 0-97 0-190 0l0 236c2 1 4 3 6 4 13 6 28 8 43 8 60 0 110-50 116-113 7 4 16 6 25 6 36 0 66-32 66-71 0-39-30-70-66-70z m-343 144c0 0 0 1-1 1l0-145c7 0 16 0 26 0l0 197c-14-14-23-32-25-53z m-52-140c8-3 17-4 26-4 2 0 0 149 0 149-9 0-18-2-26-4z m-25 126c-16-14-26-34-26-56 0-22 10-42 26-55z"/>
<glyph unicode="&#57488;" d="M497 330c53-104 16-305-215-330l-7 15c0 0 109 26 109 144 0 112-115 131-115 208 0 35 29 69 84 69 34 0 97-16 144-106z m-469-148c-54 104-16 305 215 330l6-15c0 0-109-26-109-144 0-112 115-131 115-208 0-35-29-69-84-69-33 0-97 16-143 106z"/>
<glyph unicode="&#57489;" d="M0 448l0-384c0-35 29-64 64-64l384 0c35 0 64 29 64 64l0 384c0 35-29 64-64 64l-384 0c-35 0-64-29-64-64z m274-113l74 0 0-50-74 0 0-82c0-19 1-31 3-36 2-5 5-9 11-13 7-4 14-6 23-6 16 0 32 5 47 16l0-51c-13-6-25-11-36-13-11-3-22-4-35-4-14 0-27 2-38 6-11 3-20 9-28 15-7 7-13 14-16 22-3 8-4 19-4 34l0 112-35 0 0 45c13 4 23 10 32 18 9 7 16 17 21 27 5 11 9 24 11 41l44 0z"/>
<glyph unicode="&#57490;" d="M512 411c-19-8-39-14-60-16 21 12 38 32 46 57-20-12-43-21-67-25-19 20-46 32-77 32-58 0-105-46-105-103 0-8 1-16 3-24-87 5-165 46-216 108-9-15-15-33-15-52 0-35 19-67 47-85-17 0-33 5-47 12 0 0 0 0 0-1 0-50 36-91 84-101-9-2-18-4-28-4-7 0-13 1-20 2 14-41 53-70 99-71-36-28-82-44-131-44-8 0-17 0-25 1 46-29 102-46 161-46 193 0 299 157 299 293 0 5 0 9 0 13 20 15 38 33 52 54"/>
<glyph unicode="&#57491;" d="M448 512l-384 0c-35 0-64-29-64-64l0-384c0-36 29-64 64-64l384 0c35 0 64 29 64 64l0 384c0 35-29 64-64 64z m-39-176c0-3 0-7 0-10 0-107-79-230-224-230-45 0-86 13-121 36 6 0 12-1 19-1 37 0 71 13 98 35-35 0-64 24-74 56 5-1 10-2 15-2 7 0 14 1 21 3-36 8-64 40-64 79 0 1 0 1 0 1 11-6 23-9 36-10-21 15-35 40-35 68 0 14 4 28 11 40 39-49 97-81 162-84-1 6-2 12-2 18 0 45 35 81 79 81 22 0 43-10 57-26 18 4 35 11 50 20-6-19-18-35-34-45 16 2 31 7 45 13-11-16-24-30-39-42z"/>
<glyph unicode="&#57492;" d="M0 448l0-384c0-35 29-64 64-64l384 0c35 0 64 29 64 64l0 384c0 35-29 64-64 64l-384 0c-35 0-64-29-64-64z m224-352c-22 0-41 20-57 60-10 36-20 73-31 109-11 40-23 60-37 60-2 0-13-6-30-17l-18 22c19 16 38 32 56 48 26 21 44 32 57 33 30 3 48-17 55-59 8-45 13-73 16-85 8-37 18-56 28-56 8 0 20 12 37 37 16 24 24 43 25 55 3 22-6 32-25 32-10 0-19-2-29-6 19 60 55 89 108 87 40-1 58-26 56-74-2-36-28-85-78-148-53-65-97-98-133-98z"/>
<glyph unicode="&#57493;" d="M439 254c-69 0-122 45-122 123 0 38 16 58 38 58 22 0 36-18 36-54 0-21-6-43-10-57 0 0 21-34 79-24 12 26 19 59 19 88 0 78-43 124-121 124-81 0-128-58-128-134 0-76 38-140 100-170-26-49-59-92-94-124-63 71-120 166-144 351l-93 0c43-309 171-407 205-426 20-11 36-10 54-1 27 15 110 92 156 182 19 0 42 2 65 7l0 61c-14-3-28-4-40-4z"/>
<glyph unicode="&#57494;" d="M458 366c18-32 28-70 28-110 0-85-46-159-114-199l70 203c13 33 18 59 18 83 0 8-1 16-2 23z m-170-2c14 1 26 2 26 2 12 2 11 20-1 19 0 0-38-3-62-3-22 0-60 3-60 3-13 1-14-18-2-19 0 0 12-1 24-2l36-98-50-151-84 249c14 1 26 2 26 2 13 2 11 20-1 19 0 0-37-3-61-3-5 0-10 0-15 0 41 63 112 104 192 104 60 0 114-23 155-60-1 0-2 0-3 0-22 0-38-20-38-41 0-19 11-35 22-54 9-15 19-35 19-63 0-20-7-43-17-75l-23-76z m-32-338c-23 0-44 3-65 9l69 201 71-194c0-1 1-2 1-3-23-9-49-13-76-13z m-230 230c0 33 7 65 20 94l110-301c-77 37-130 116-130 207z m230 256c-141 0-256-115-256-256 0-141 115-256 256-256 141 0 256 115 256 256 0 141-115 256-256 256z"/>
<glyph unicode="&#57495;" d="M447 70c-63-8-128-8-192-8-64 0-128 0-191 8-27 3-49 25-56 55-9 42-9 88-9 132 0 44 0 90 9 132 7 30 29 52 56 55 63 8 127 8 191 8 64 0 129 0 192-8 27-3 49-25 55-55 9-42 9-88 9-132 0-44 0-90-9-132-6-30-28-52-55-55z m-253 90l171 97-171 98z"/>
<glyph unicode="&#57496;" d="M332 315c10 0 20 6 31 17l0-15 27 0 0 141-27 0 0-108c-6-8-12-12-17-12-4 0-6 2-7 6 0 1 0 4 0 10l0 104-27 0 0-112c0-9 1-16 2-20 3-8 9-11 18-11z m86-160c0 13-5 19-14 19-9 0-13-6-13-19l0-13 27 0z m-168 160c13 0 24 5 31 15 6 7 9 18 9 33l0 49c0 15-3 26-9 33-7 9-18 14-31 14-14 0-24-5-32-14-5-7-8-18-8-33l0-49c0-15 3-26 8-33 8-10 18-15 32-15z m-13 102c0 13 4 19 13 19 9 0 13-6 13-19l0-59c0-13-4-20-13-20-9 0-13 7-13 20z m68-243c-4 0-9-2-13-6l0-85c4-4 9-6 13-6 8 0 12 7 12 19l0 59c0 13-4 19-12 19z m-161 219l0-76 30 0 0 76 36 113-31 0-20-74-21 74-32 0c6-18 13-35 19-53 10-26 16-46 19-60z m326-148c-6 22-25 39-48 41-55 6-111 6-166 6-55 0-111 0-166-6-23-2-42-19-47-41-8-32-8-66-8-99 0-32 0-66 7-98 6-22 25-39 48-41 55-6 111-6 166-6 55 0 111 0 166 6 23 2 42 19 47 41 8 32 8 66 8 98 0 33 0 67-7 99z m-309-28l-32 0 0-161-30 0 0 161-31 0 0 26 93 0z m81-161l-27 0 0 15c-11-11-21-17-31-17-8 0-14 4-17 11-1 4-2 11-2 20l0 110 27 0 0-102c0-6 0-9 0-10 0-4 2-6 6-6 5 0 11 4 17 12l0 106 27 0 0-139z m101 42c0-13-1-22-2-28-4-10-11-16-22-16-9 0-18 5-27 16l0-14-27 0 0 187 27 0 0-61c8 10 17 15 27 15 11 0 18-5 22-16 1-5 2-14 2-28z m101 3c0-8 0-14 0-16-1-6-3-11-7-16-7-10-18-15-32-15-14 0-25 5-32 15-6 7-9 18-9 32l0 49c0 15 3 26 8 33 8 9 19 14 32 14 14 0 25-5 32-14 6-7 8-18 8-33l0-29-53 0 0-24c0-13 4-20 13-20 7 0 11 4 12 10 1 2 1 7 1 17l27 0z"/>
<glyph unicode="&#57497;" d="M55 98c-13 29 0 90 57 119 27 14 39 28 23 57-16 30-37 25-62 12-57-31-100-121-71-199 41-110 175-89 248-64 25 9-152-23-195 75z m164 167c-22-1-46-13-53-13-10 49-43 72-43 72 0 0 20 8 32 27-23 26-89 45-89 45 0 0 103 88 170 59 7 4 15 8 22 12 139 79 254 30 254 30 0 0-12-115-151-198-8-5-16-9-23-12-4-74-138-119-138-119 0 0 31 64 19 97z m219 156c7 23-7 47-32 55-1 0-1 0-2 0-26 7-52-8-59-32-7-24 8-49 34-55 26-7 52 7 59 32z"/>
<glyph unicode="&#57498;" d="M435 256c28 0 76 20 76 68 0 59-95 137-237 137-142 0-275-78-275-205 0-68 42-205 213-205 138 0 242 41 242 108 0 39-67 39-67 39 0 0-37 0-37 29 0 29 56 29 85 29z m-319 20c-18 0-32 14-32 31 0 17 14 31 32 31 18 0 32-14 32-31 0-17-14-31-32-31z m107 62c-18 0-32 14-32 31 0 17 14 30 32 30 17 0 32-13 32-30 0-17-15-31-32-31z m64-225c-18 0-32 13-32 30 0 17 14 31 32 31 17 0 32-14 32-31 0-17-15-30-32-30z m32 235c0 17 14 31 32 31 17 0 32-14 32-31 0-17-15-31-32-31-18 0-32 14-32 31z"/>
<glyph unicode="&#57499;" d="M416 512l-320 0c-35 0-64-29-64-64l0-384c0-35 29-64 64-64l320 0c35 0 64 29 64 64l0 384c0 35-29 64-64 64z m-64-416l-192 0c-16 0-32 13-32 32 0 19 13 32 32 32l192 0c16 0 32-13 32-32 0-19-13-32-32-32z m0 128l-192 0c-16 0-32 13-32 32 0 19 13 32 32 32l192 0c16 0 32-13 32-32 0-19-13-32-32-32z m0 128l-192 0c-16 0-32 13-32 32 0 19 13 32 32 32l192 0c16 0 32-13 32-32 0-19-13-32-32-32z"/>
<glyph unicode="&#57500;" d="M384 512l-256 0c-35 0-64-29-64-64l0-384c0-35 29-64 64-64l256 0c35 0 64 29 64 64l0 384c0 35-29 64-64 64z m-112-480l-32 0c-10 0-16 6-16 16 0 10 6 16 16 16l32 0c10 0 16-6 16-16 0-10-6-16-16-16z m144 96c0-19-13-32-32-32l-256 0c-16 0-32 13-32 32l0 288c0 19 13 32 32 32l256 0c16 0 32-13 32-32z"/>
<glyph unicode="&#57501;" d="M218 512c-7 6-183-6-196-16-16-13-28-195-22-202 6-9 285-294 294-294 7 0 218 211 218 218 0 9-285 288-294 294z m-84-186c-28 0-51 23-51 52 0 28 23 51 51 51 29 0 52-23 52-51 0-29-23-52-52-52z"/>
<glyph unicode="&#57502;" d="M512 102l0 359-512 0 0-359 230 0 0-25-115 0c-7 0-13-6-13-13 0-7 6-13 13-13l282 0c7 0 13 6 13 13 0 7-6 13-13 13l-115 0 0 25z m-486 26l0 307 460 0 0-307z m178 135l0 92-30 0-72-89 0-29 70 0 0-35 32 0 0 35 22 0 0 26z m-32 0l-43 0 43 53 0 0 0-53z m74 95l0-156 37 0 0 50 22 20 50-70 47 0-72 95 66 61-47 0-66-65 0 65z"/>
<glyph unicode="&#57503;" d="M512 102l0 359-512 0 0-359 230 0 0-25-115 0c-7 0-13-6-13-13 0-7 6-13 13-13l282 0c7 0 13 6 13 13 0 7-6 13-13 13l-115 0 0 25z m-486 26l0 307 460 0 0-307z m246 102c11-12 11-30 0-42-12-12-30-12-41 0-11 12-11 30 0 42 11 12 29 12 41 0z m49 9c-39 40-101 40-139 0l-29 30c54 56 142 56 197 0z m-189 51l-30 30c83 85 216 85 298 0l-30-30c-65 68-172 68-238 0z"/>
<glyph unicode="&#57504;" d="M512 102l0 359-512 0 0-359 230 0 0-25-115 0c-7 0-13-6-13-13 0-7 6-13 13-13l282 0c7 0 13 6 13 13 0 7-6 13-13 13l-115 0 0 25z m-486 26l0 307 460 0 0-307z m76 230l0-153 34 0 0 66 63 0 0-66 34 0 0 153-34 0 0-59-63 0 0 59z m294-42c-4 9-9 17-15 23-6 7-14 11-22 15-9 3-18 4-28 4l-67 0 0-153 67 0c12 0 22 2 31 6 8 4 16 9 22 16 5 7 10 15 13 24 3 10 4 20 4 31 0 13-2 24-5 34z m-32-58c-2-6-5-11-9-15-4-3-8-6-12-7-5-2-10-3-15-3l-30 0 0 97 24 0c9 0 16-1 22-4 5-2 10-5 13-10 4-4 6-10 8-16 1-6 2-13 2-21 0-8-1-15-3-21z"/>
<glyph unicode="&#57505;" d="M512 102l0 359-512 0 0-359 230 0 0-25-115 0c-7 0-13-6-13-13 0-7 6-13 13-13l282 0c7 0 13 6 13 13 0 7-6 13-13 13l-115 0 0 25z m-486 26l0 307 460 0 0-307z m108 129l-32 0c0-9 2-17 5-23 4-7 8-12 14-16 6-5 13-8 20-10 8-2 16-3 24-3 10 0 18 2 26 4 8 2 14 5 19 10 5 4 9 9 12 14 2 6 3 12 3 19 0 8-1 15-5 20-3 6-7 10-12 13-5 3-10 5-15 7-4 1-8 2-11 3-9 2-16 4-22 5-6 2-10 3-13 5-4 1-6 3-7 5-1 2-2 4-2 7 0 3 1 6 2 8 2 2 4 3 6 5 2 1 4 2 7 3 2 0 5 0 8 0 4 0 7 0 11-1 3 0 6-1 8-3 3-2 5-4 7-7 1-3 2-6 2-11l32 0c0 9-2 16-5 22-3 6-8 11-13 15-6 3-12 6-19 8-7 2-14 2-22 2-7 0-13 0-20-2-6-2-12-5-17-8-5-4-10-9-13-14-3-6-5-12-5-20 0-7 2-12 4-17 3-5 6-9 10-12 4-3 9-5 14-7 5-2 10-4 16-5 5-2 11-3 16-5 5-1 10-2 14-4 4-1 7-3 10-6 2-2 3-6 3-10 0-3-1-6-3-9-1-2-4-4-7-5-3-2-6-3-9-3-3-1-6-1-9-1-4 0-8 1-12 2-4 1-8 2-11 4-3 3-5 5-7 9-2 3-2 7-2 12z m261 57c-4 9-8 17-14 23-6 6-13 10-21 13-9 3-17 5-27 5l-63 0 0-146 63 0c11 0 21 2 29 5 9 4 16 9 21 16 6 6 10 14 12 23 3 9 5 19 5 30 0 12-2 22-5 31z m-31-55c-2-6-4-10-8-14-3-3-7-6-12-7-4-2-8-2-13-2l-29 0 0 92 23 0c8 0 15-1 20-3 6-3 10-6 13-10 3-4 6-10 7-15 2-6 2-13 2-20 0-9-1-15-3-21z"/>
<glyph unicode="&#57506;" d="M512 128c-31 221-249 364-439 152l0 46c-8 51-71 50-73 0l0-158c0-25 14-40 37-40l146 0c46 3 47 70 0 79l-60 0c187 208 333 4 389-79z"/>
<glyph unicode="&#57507;" d="M512 348c-1-21-19-38-40-38-22 0-39 17-41 38-1 26-25 47-54 47-30 0-54-22-54-50l0-51 81 0-161 0 0 51c0 70 60 127 134 127 70 0 127-50 134-114 1-3 1-5 1-8 0 0 0-1 0-2 0 0 0 0 0 0z m-135-282c0-14-12-26-27-26l-323 0c-15 0-27 12-27 26l0 203c0 13 12 25 27 25l323 0c15 0 27-11 27-25z m-161 62c16 10 27 27 27 47 0 30-25 54-54 54-30 0-54-24-54-54 0-20 11-37 27-47l0-34 54 0z"/>
<glyph unicode="&#57508;" d="M512 238c2 35-18 72-45 88-2 5-4 9-6 13 9 30 1 69-22 94-25 27-70 38-100 28-14 28-47 51-82 51-37 0-71-24-84-53-32 15-85-2-109-37-18-27-21-64-10-91-31-14-56-55-54-94 3-31 23-63 49-78-3-23 2-50 16-69 23-34 72-51 104-39 3-1 5-2 7-3 15-27 47-48 81-48 29 0 58 17 74 39 8 2 16 5 24 9 29-4 65 8 86 33 18 21 26 52 23 78 0 0 0 0 0 0 25 16 45 47 48 79z m-286-118l-116 110 50 54 66-61 122 127 54-54z"/>
<glyph unicode="&#57509;" d="M0 154c0-34 27-62 61-62l226 0c34 0 61 28 61 62l0 204c0 34-27 62-61 62l-226 0c-33 0-61-28-61-62z m512 204c0 12-9 21-20 21-4 0-8-1-11-3l-112-79 0-82 109-77c4-3 8-5 14-5 11 0 20 9 20 21z"/>
<glyph unicode="&#57510;" d="M480 512l-448 0c-18 0-32-14-32-32l0-448c0-18 14-32 32-32l448 0c18 0 32 14 32 32l0 448c0 18-14 32-32 32z m-32-448l-384 0 0 384 384 0z m-352 352l320 0 0-128-320 0z m0-160l192 0 0-32-192 0z m224 0l96 0 0-64-96 0z m0-96l96 0 0-64-96 0z m-224 32l192 0 0-32-192 0z m0-64l192 0 0-32-192 0z"/>
<glyph unicode="&#57511;" d="M398 484c0 15 13 28 29 28 15 0 28-13 28-28l0-29 29 0c15 0 28-13 28-28 0-16-13-29-28-29l-29 0 0-28c0-16-13-29-28-29-16 0-29 13-29 29l0 28-28 0c-16 0-29 13-29 29 0 15 13 28 29 28l28 0z m57-456c0-15-13-28-28-28l-399 0c-15 0-28 13-28 28l0 399c0 15 13 28 28 28l292 0c-4-8-7-18-7-28 0-11 3-20 8-29l-264 0 0-341 341 0 0 263c9-4 18-7 29-7 10 0 20 3 28 8z m-171 143l86 0 0 57-86 0z m-199 28l171 0 0 29-171 0z m0-57l171 0 0 29-171 0z m0-57l171 0 0 29-171 0z m199 0l86 0 0 57-86 0z m-199 171l285 0 0 114-285 0z"/>
<glyph unicode="&#57512;" d="M61 182l105-103 244 243-105 103z m303 301c10 9 22 14 36 14 30 0 82-52 82-81 0-14-5-27-14-36l-33-33-104 104z m28-347l0 30c0 16 13 30 30 30 16 0 30-14 30-30l0-30 30 0c16 0 30-14 30-31 0-16-13-30-30-30l-30 0 0-30c0-16-14-30-30-30-17 0-30 13-30 30l0 30-31 0c-16 0-30 14-30 30 0 17 14 31 30 31z m-355 20c-7-19-40-137-37-141 4-3 120 32 139 40z"/>
<glyph unicode="&#57513;" d="M19 403c-25 25-25 66 0 90 25 25 65 25 90 0l147-147 147 147c25 25 66 25 90 0 25-25 25-65 0-90l-147-147 147-147c25-25 25-66 0-90-25-25-65-25-90 0l-147 147-147-147c-25-25-66-25-90 0-25 25-25 65 0 90l147 147z"/>
<glyph unicode="&#57514;" d="M448 509l-384 0c-35 0-64-29-64-64l0-384c0-35 29-64 64-64l384 0c35 0 64 29 64 64l0 384c0 35-29 64-64 64z m-224-448l-160 0 0 384 160 0z m224 0l-160 0 0 128 160 0z m0 160l-160 0 0 224 160 0z m-128 192l96 0 0-160-96 0z"/>
</font>
</defs>
</svg>
